<mxfile host="app.diagrams.net" modified="2023-06-14T12:56:34.621Z" agent="Mozilla/5.0 (Macintosh; Intel Mac OS X 10_15_7) AppleWebKit/537.36 (KHTML, like Gecko) Chrome/114.0.0.0 Safari/537.36" etag="902byj1RKueig3LOEKh9" version="21.3.8" type="device">
  <diagram name="‫עמוד-1‬" id="smnS0KoDSZ2Y2lT4GDDG">
    <mxGraphModel dx="1354" dy="509" grid="0" gridSize="10" guides="1" tooltips="1" connect="1" arrows="1" fold="1" page="0" pageScale="1" pageWidth="827" pageHeight="583" background="#ffffff" math="0" shadow="0">
      <root>
        <mxCell id="0" />
        <mxCell id="1" parent="0" />
        <mxCell id="0r_N5V76rt5JCGLBSWf1-2" value="VPC&lt;br&gt;us-east-1" style="sketch=0;outlineConnect=0;gradientColor=none;html=1;whiteSpace=wrap;fontSize=12;fontStyle=0;shape=mxgraph.aws4.group;grIcon=mxgraph.aws4.group_vpc;strokeColor=#879196;fillColor=none;verticalAlign=top;align=left;spacingLeft=30;fontColor=#879196;dashed=0;" vertex="1" parent="1">
          <mxGeometry x="-280" y="110" width="840" height="230" as="geometry" />
        </mxCell>
        <mxCell id="0r_N5V76rt5JCGLBSWf1-9" value="Availability zone&lt;br&gt;us-east-1c" style="sketch=0;outlineConnect=0;gradientColor=none;html=1;whiteSpace=wrap;fontSize=12;fontStyle=0;shape=mxgraph.aws4.group;grIcon=mxgraph.aws4.group_availability_zone;strokeColor=#545B64;fillColor=none;verticalAlign=top;align=center;spacingLeft=30;fontColor=#545B64;dashed=1;movable=1;resizable=1;rotatable=1;deletable=1;editable=1;locked=0;connectable=1;" vertex="1" parent="1">
          <mxGeometry x="240" y="40" width="190" height="320" as="geometry" />
        </mxCell>
        <mxCell id="0r_N5V76rt5JCGLBSWf1-1" value="Internet&#xa;Gateway" style="shape=image;verticalLabelPosition=bottom;labelBackgroundColor=default;verticalAlign=top;aspect=fixed;imageAspect=0;image=data:image/svg+xml,PHN2ZyB4bWxuczp4bGluaz0iaHR0cDovL3d3dy53My5vcmcvMTk5OS94bGluayIgeG1sbnM9Imh0dHA6Ly93d3cudzMub3JnLzIwMDAvc3ZnIiB2ZXJzaW9uPSIxLjEiIHZpZXdCb3g9IjAgMCA0OCA0OCIgaGVpZ2h0PSI0OHB4IiB3aWR0aD0iNDhweCI+JiN4YTsgICAgPHRpdGxlPkljb24tUmVzb3VyY2UvTmV0d29ya2luZy1hbmQtQ29udGVudC1EZWxpdmVyeS9SZXNfQW1hem9uLVZQQ19JbnRlcm5ldC1HYXRld2F5XzQ4PC90aXRsZT4mI3hhOyAgICA8ZyBmaWxsLXJ1bGU9ImV2ZW5vZGQiIGZpbGw9Im5vbmUiIHN0cm9rZS13aWR0aD0iMSIgc3Ryb2tlPSJub25lIiBpZD0iSWNvbi1SZXNvdXJjZS9OZXR3b3JraW5nLWFuZC1Db250ZW50LURlbGl2ZXJ5L1Jlc19BbWF6b24tVlBDX0ludGVybmV0LUdhdGV3YXlfNDgiPiYjeGE7ICAgICAgICA8cGF0aCBmaWxsPSIjOEM0RkZGIiBpZD0iQVdTLUFtYXpvbi1WUENfSW50ZXJuZXQtZ2F0ZXdheV9SZXNvdXJjZS1JY29uX2xpZ2h0LWJnIiBkPSJNMzMuNDMxMiwzNS4xNzc4IEwzMS45MzMyLDM1LjE3NzggTDMxLjkzMzIsMTcuNTAxOCBDMzEuOTMzMiwxNy4xMDg4IDMxLjcwMjIsMTYuNzUxOCAzMS4zNDQyLDE2LjU5MDggTDMxLjI1MjIsMTYuNTQ4OCBDMjkuMjQzMiwxNS42NDE4IDI3LjE2NDIsMTQuNzAyOCAyNC4xNzYyLDE0LjcwMjggQzIxLjA1MzIsMTQuNzAyOCAxOC43NjEyLDE1LjcxMTggMTYuNDk1MiwxNi44MzY4IEMxNi4xNTUyLDE3LjAwNTggMTUuOTQwMiwxNy4zNTI4IDE1Ljk0MDIsMTcuNzMyOCBMMTUuOTQwMiwzNS4xNzc4IEwxNC40NzcyLDM1LjE3NzggTDE0LjQ3NzIsMTYuMzExOCBDMTYuOTExMiwxNC4zMzI4IDIwLjQyMDIsMTMuMjA0OCAyNC4xODYyLDEzLjIwNDggQzI3LjY4NzIsMTMuMjA0OCAzMS4wMjUyLDE0LjIwMTggMzMuNDMxMiwxNS45NTI4IEwzMy40MzEyLDM1LjE3NzggWiBNMjQuMTg2MiwxMS4yMDQ4IEMxOS43NjEyLDExLjIwNDggMTUuNjE3MiwxMi42MjM4IDEyLjgxNTIsMTUuMDk5OCBDMTIuNjAwMiwxNS4yODg4IDEyLjQ3NzIsMTUuNTYxOCAxMi40NzcyLDE1Ljg0ODggTDEyLjQ3NzIsMzYuMTc3OCBDMTIuNDc3MiwzNi43MzA4IDEyLjkyNDIsMzcuMTc3OCAxMy40NzcyLDM3LjE3NzggTDE2Ljk0MDIsMzcuMTc3OCBDMTcuNDkzMiwzNy4xNzc4IDE3Ljk0MDIsMzYuNzMwOCAxNy45NDAyLDM2LjE3NzggTDE3Ljk0MDIsMTguMzU1OCBDMTkuODU5MiwxNy40Mjg4IDIxLjcxOTIsMTYuNzAyOCAyNC4xNzYyLDE2LjcwMjggQzI2LjUxMTIsMTYuNzAyOCAyOC4yMDkyLDE3LjM3NzggMjkuOTMzMiwxOC4xNDg4IEwyOS45MzMyLDM2LjE3NzggQzI5LjkzMzIsMzYuNzMwOCAzMC4zODAyLDM3LjE3NzggMzAuOTMzMiwzNy4xNzc4IEwzNC40MzEyLDM3LjE3NzggQzM0Ljk4NDIsMzcuMTc3OCAzNS40MzEyLDM2LjczMDggMzUuNDMxMiwzNi4xNzc4IEwzNS40MzEyLDE1LjQ1NzggQzM1LjQzMTIsMTUuMTUzOCAzNS4yOTIyLDE0Ljg2NTggMzUuMDUzMiwxNC42NzQ4IEMzMi4yNzkyLDEyLjQ2OTggMjguMzE4MiwxMS4yMDQ4IDI0LjE4NjIsMTEuMjA0OCBMMjQuMTg2MiwxMS4yMDQ4IFogTTIzLjk1NDIsNDMuOTA4OCBDMTIuOTUyMiw0My45MDg4IDMuOTk5MiwzNC45NTY4IDMuOTk5MiwyMy45NTM4IEMzLjk5OTIsMTIuOTUwOCAxMi45NTIyLDMuOTk5OCAyMy45NTQyLDMuOTk5OCBDMzQuOTU3MiwzLjk5OTggNDMuOTA5MiwxMi45NTA4IDQzLjkwOTIsMjMuOTUzOCBDNDMuOTA5MiwzNC45NTY4IDM0Ljk1NzIsNDMuOTA4OCAyMy45NTQyLDQzLjkwODggTDIzLjk1NDIsNDMuOTA4OCBaIE0yMy45NTQyLDEuOTk5OCBDMTEuODQ4MiwxLjk5OTggMS45OTkyLDExLjg0ODggMS45OTkyLDIzLjk1MzggQzEuOTk5MiwzNi4wNjA4IDExLjg0ODIsNDUuOTA4OCAyMy45NTQyLDQ1LjkwODggQzM2LjA2MDIsNDUuOTA4OCA0NS45MDkyLDM2LjA2MDggNDUuOTA5MiwyMy45NTM4IEM0NS45MDkyLDExLjg0ODggMzYuMDYwMiwxLjk5OTggMjMuOTU0MiwxLjk5OTggTDIzLjk1NDIsMS45OTk4IFoiLz4mI3hhOyAgICA8L2c+JiN4YTs8L3N2Zz4=;" vertex="1" parent="1">
          <mxGeometry x="-260" y="201" width="48" height="48" as="geometry" />
        </mxCell>
        <mxCell id="0r_N5V76rt5JCGLBSWf1-3" value="Public subnet" style="points=[[0,0],[0.25,0],[0.5,0],[0.75,0],[1,0],[1,0.25],[1,0.5],[1,0.75],[1,1],[0.75,1],[0.5,1],[0.25,1],[0,1],[0,0.75],[0,0.5],[0,0.25]];outlineConnect=0;gradientColor=none;html=1;whiteSpace=wrap;fontSize=12;fontStyle=0;container=0;pointerEvents=0;collapsible=0;recursiveResize=0;shape=mxgraph.aws4.group;grIcon=mxgraph.aws4.group_security_group;grStroke=0;strokeColor=#248814;fillColor=#E9F3E6;verticalAlign=top;align=left;spacingLeft=30;fontColor=#248814;dashed=0;" vertex="1" parent="1">
          <mxGeometry x="260" y="130" width="150" height="190" as="geometry" />
        </mxCell>
        <mxCell id="0r_N5V76rt5JCGLBSWf1-5" value="Lambda" style="shape=image;verticalLabelPosition=bottom;labelBackgroundColor=default;verticalAlign=top;aspect=fixed;imageAspect=0;image=data:image/svg+xml,PHN2ZyB4bWxuczp4bGluaz0iaHR0cDovL3d3dy53My5vcmcvMTk5OS94bGluayIgeG1sbnM9Imh0dHA6Ly93d3cudzMub3JnLzIwMDAvc3ZnIiB2ZXJzaW9uPSIxLjEiIHZpZXdCb3g9IjAgMCA4MCA4MCIgaGVpZ2h0PSI4MHB4IiB3aWR0aD0iODBweCI+JiN4YTsgICAgPHRpdGxlPkljb24tQXJjaGl0ZWN0dXJlLzY0L0FyY2hfQVdTLUxhbWJkYV82NDwvdGl0bGU+JiN4YTsgICAgPGcgZmlsbC1ydWxlPSJldmVub2RkIiBmaWxsPSJub25lIiBzdHJva2Utd2lkdGg9IjEiIHN0cm9rZT0ibm9uZSIgaWQ9Ikljb24tQXJjaGl0ZWN0dXJlLzY0L0FyY2hfQVdTLUxhbWJkYV82NCI+JiN4YTsgICAgICAgIDxnIGZpbGw9IiNFRDcxMDAiIGlkPSJJY29uLUFyY2hpdGVjdHVyZS1CRy82NC9Db21wdXRlIj4mI3hhOyAgICAgICAgICAgIDxyZWN0IGhlaWdodD0iODAiIHdpZHRoPSI4MCIgeT0iMCIgeD0iMCIgaWQ9IlJlY3RhbmdsZSIvPiYjeGE7ICAgICAgICA8L2c+JiN4YTsgICAgICAgIDxwYXRoIGZpbGw9IiNGRkZGRkYiIGlkPSJBV1MtTGFtYmRhX0ljb25fNjRfU3F1aWQiIGQ9Ik0yOC4wMDc1MzUyLDY2IEwxNS41OTA3Mjc0LDY2IEwyOS4zMjM1ODg1LDM3LjI5NiBMMzUuNTQ2MDI0OSw1MC4xMDYgTDI4LjAwNzUzNTIsNjYgWiBNMzAuMjE5NjY3NCwzNC41NTMgQzMwLjA1MTI3NjgsMzQuMjA4IDI5LjcwMDQ2MjksMzMuOTg5IDI5LjMxNzU3NDUsMzMuOTg5IEwyOS4zMTQ1Njc2LDMzLjk4OSBDMjguOTI4NjcyMywzMy45OSAyOC41Nzc4NTgzLDM0LjIxMSAyOC40MTI0NzQ2LDM0LjU1OCBMMTMuMDk3OTQ0LDY2LjU2OSBDMTIuOTQ5NTk5OSw2Ni44NzkgMTIuOTcwNjQ4Nyw2Ny4yNDMgMTMuMTU1MDc2Niw2Ny41MzQgQzEzLjMzNzQ5OTgsNjcuODI0IDEzLjY1ODI0MzksNjggMTQuMDAyMDQxNiw2OCBMMjguNjQyMDA3Miw2OCBDMjkuMDI5OTA3MSw2OCAyOS4zODE3MjM0LDY3Ljc3NyAyOS41NDgxMDk0LDY3LjQyOCBMMzcuNTYzNzA2LDUwLjUyOCBDMzcuNjkzMDA2LDUwLjI1NCAzNy42OTIwMDM3LDQ5LjkzNyAzNy41NTg2OTQ0LDQ5LjY2NSBMMzAuMjE5NjY3NCwzNC41NTMgWiBNNjQuOTk1MzQ5MSw2NiBMNTIuNjU4NzI3NCw2NiBMMzIuODY2ODA5LDI0LjU3IEMzMi43MDE0MjUzLDI0LjIyMiAzMi4zNDg2MDY3LDI0IDMxLjk2MTcwOTEsMjQgTDIzLjg4OTk4MjIsMjQgTDIzLjg5OTAwMzEsMTQgTDM5LjcxOTcwODEsMTQgTDU5LjQyMDQxNDksNTUuNDI5IEM1OS41ODU3OTg2LDU1Ljc3NyA1OS45Mzg2MTcyLDU2IDYwLjMyNTUxNDgsNTYgTDY0Ljk5NTM0OTEsNTYgTDY0Ljk5NTM0OTEsNjYgWiBNNjUuOTk3Njc0NSw1NCBMNjAuOTU5OTg2OCw1NCBMNDEuMjU5MjgsMTIuNTcxIEM0MS4wOTM4OTYzLDEyLjIyMyA0MC43NDEwNzc3LDEyIDQwLjM1MzE3NzgsMTIgTDIyLjg5NzY4LDEyIEMyMi4zNDUzOTg3LDEyIDIxLjg5NjM1NjksMTIuNDQ3IDIxLjg5NTM1NDUsMTIuOTk5IEwyMS44ODQzMjksMjQuOTk5IEMyMS44ODQzMjksMjUuMjY1IDIxLjk4ODU3MDgsMjUuNTE5IDIyLjE3ODAxMDMsMjUuNzA3IEMyMi4zNjU0NDUyLDI1Ljg5NSAyMi42MjAwMzU4LDI2IDIyLjg4NjY1NDQsMjYgTDMxLjMyOTI0MTcsMjYgTDUxLjEyMjE2MjUsNjcuNDMgQzUxLjI4ODU0ODUsNjcuNzc4IDUxLjYzOTM2MjQsNjggNTIuMDI2MjYsNjggTDY1Ljk5NzY3NDUsNjggQzY2LjU1MTk2MDUsNjggNjcsNjcuNTUyIDY3LDY3IEw2Nyw1NSBDNjcsNTQuNDQ4IDY2LjU1MTk2MDUsNTQgNjUuOTk3Njc0NSw1NCBMNjUuOTk3Njc0NSw1NCBaIi8+JiN4YTsgICAgPC9nPiYjeGE7PC9zdmc+;" vertex="1" parent="1">
          <mxGeometry x="295" y="190" width="80" height="80" as="geometry" />
        </mxCell>
        <mxCell id="0r_N5V76rt5JCGLBSWf1-7" value="" style="shape=image;verticalLabelPosition=bottom;labelBackgroundColor=default;verticalAlign=top;aspect=fixed;imageAspect=0;image=data:image/svg+xml,PHN2ZyB4bWxuczp4bGluaz0iaHR0cDovL3d3dy53My5vcmcvMTk5OS94bGluayIgeG1sbnM9Imh0dHA6Ly93d3cudzMub3JnLzIwMDAvc3ZnIiB2ZXJzaW9uPSIxLjEiIHZpZXdCb3g9IjAgMCA0OCA0OCIgaGVpZ2h0PSI0OHB4IiB3aWR0aD0iNDhweCI+JiN4YTsgICAgPHRpdGxlPkljb24tUmVzb3VyY2UvRGF0YWJhc2UvUmVzX0FtYXpvbi1SRFMtUHJveHktSW5zdGFuY2VfNDg8L3RpdGxlPiYjeGE7ICAgIDxnIGZpbGwtcnVsZT0iZXZlbm9kZCIgZmlsbD0ibm9uZSIgc3Ryb2tlLXdpZHRoPSIxIiBzdHJva2U9Im5vbmUiIGlkPSJJY29uLVJlc291cmNlL0RhdGFiYXNlL1Jlc19BbWF6b24tUkRTLVByb3h5LUluc3RhbmNlXzQ4Ij4mI3hhOyAgICAgICAgPHBhdGggZmlsbD0iI0M5MjVEMSIgaWQ9IkFtYXpvbi1EQVRBQkFTRV9BbWF6b24tUkRTLVByb3h5X1Jlc291cmNlLUljb25fbGlnaHQtYmciIGQ9Ik00NC4xNzUxLDI5Ljk5MjcgTDQ0LjE3NTEsMjYuMjM0NyBDNDIuNDcxMSwyNy4yMzU3IDM5Ljc1NDEsMjcuNzUzNyAzNy4wNTMxLDI3Ljc1MzcgQzM0LjM1MjEsMjcuNzUzNyAzMS42MzUxLDI3LjIzNTcgMjkuOTMxMSwyNi4yMzQ3IEwyOS45MzExLDI5Ljk5MjcgQzI5LjkzMTEsMzAuNzUyNyAzMi40NDUxLDMyLjIzMTcgMzcuMDUzMSwzMi4yMzE3IEM0MS42NjExLDMyLjIzMTcgNDQuMTc1MSwzMC43NTI3IDQ0LjE3NTEsMjkuOTkyNyBMNDQuMTc1MSwyOS45OTI3IFogTTQ0LjE3NTEsMzYuMTE1NyBMNDQuMTc1MSwzMi40Njc3IEM0Mi40NzExLDMzLjQ2ODcgMzkuNzU0MSwzMy45ODQ3IDM3LjA1MzEsMzMuOTg0NyBDMzQuMzUyMSwzMy45ODQ3IDMxLjYzNTEsMzMuNDY4NyAyOS45MzExLDMyLjQ2NzcgTDI5LjkzMTEsMzYuMTE1NyBDMjkuOTMxMSwzNi44NzU3IDMyLjQ0NTEsMzguMzU0NyAzNy4wNTMxLDM4LjM1NDcgQzQxLjY2MTEsMzguMzU0NyA0NC4xNzUxLDM2Ljg3NTcgNDQuMTc1MSwzNi4xMTU3IEw0NC4xNzUxLDM2LjExNTcgWiBNNDQuMTc1MSw0MS41ODI3IEw0NC4xNzUxLDM4LjU5MDcgQzQyLjQ3MTEsMzkuNTkxNyAzOS43NTQxLDQwLjEwNzcgMzcuMDUzMSw0MC4xMDc3IEMzNC4zNTIxLDQwLjEwNzcgMzEuNjM1MSwzOS41OTE3IDI5LjkzMTEsMzguNTkwNyBMMjkuOTMxMSw0MS41ODI3IEMyOS45MzExLDQyLjM0MjcgMzIuNDQ1MSw0My44MjE3IDM3LjA1MzEsNDMuODIxNyBDNDEuNjYxMSw0My44MjE3IDQ0LjE3NTEsNDIuMzQyNyA0NC4xNzUxLDQxLjU4MjcgTDQ0LjE3NTEsNDEuNTgyNyBaIE0yOS45MzExLDIzLjc2MDcgQzI5LjkzMTEsMjQuNTIwNyAzMi40NDUxLDI2LjAwMDcgMzcuMDUzMSwyNi4wMDA3IEM0MS42NjExLDI2LjAwMDcgNDQuMTc1MSwyNC41MjA3IDQ0LjE3NTEsMjMuNzYwNyBDNDQuMTc1MSwyMi45OTk3IDQxLjY2MTEsMjEuNTE5NyAzNy4wNTMxLDIxLjUxOTcgQzMyLjQ0NTEsMjEuNTE5NyAyOS45MzExLDIyLjk5OTcgMjkuOTMxMSwyMy43NjA3IEwyOS45MzExLDIzLjc2MDcgWiBNNDUuOTI3MSwyMy43NjA3IEw0NS45MjcxLDQxLjU4MjcgQzQ1LjkyNzEsNDQuMjAzNyA0MS40NjIxLDQ1LjU3NDcgMzcuMDUzMSw0NS41NzQ3IEMzMi42NDMxLDQ1LjU3NDcgMjguMTc4MSw0NC4yMDM3IDI4LjE3ODEsNDEuNTgyNyBMMjguMTc4MSwyMy43NjA3IEMyOC4xNzgxLDIxLjEzODcgMzIuNjQzMSwxOS43Njc3IDM3LjA1MzEsMTkuNzY3NyBDNDEuNDYyMSwxOS43Njc3IDQ1LjkyNzEsMjEuMTM4NyA0NS45MjcxLDIzLjc2MDcgTDQ1LjkyNzEsMjMuNzYwNyBaIE0zNy45MTcxLDExLjc5MzcgQzM3Ljg4NDEsMTIuMDUzNyAzNy44MTYxLDEyLjIzOTcgMzcuNzEwMSwxMi4zNTA3IEMzNy42MDUxLDEyLjQ2MTcgMzcuNDQ2MSwxMi41MTY3IDM3LjIzNzEsMTIuNTE2NyBDMzcuMTIwMSwxMi41MTY3IDM2Ljk4ODEsMTIuNTA1NyAzNi44MzgxLDEyLjQ4MjcgTDM2LjgzODEsMTMuMjQ4NyBDMzcuMDg3MSwxMy4zMzI3IDM3LjMzMTEsMTMuMzczNyAzNy41NjkxLDEzLjM3MzcgQzM3Ljg4NDEsMTMuMzczNyAzOC4xMzkxLDEzLjI4MjcgMzguMzMyMSwxMy4wOTg3IEMzOC41MjcxLDEyLjkxNjcgMzguNjgxMSwxMi42MTk3IDM4Ljc5ODEsMTIuMjA5NyBMNDAuMjAwMSw3LjMxMTcgTDM5LjAyOTEsNy4zMTE3IEwzOC40MDcxLDEwLjQzNzcgTDM3Ljc2ODEsNy4zMTE3IEwzNi41NjQxLDcuMzExNyBMMzcuOTM0MSwxMS42NDM3IEwzNy45MTcxLDExLjc5MzcgWiBNMzYuMjQ5MSwxMS41NjA3IEwzNS4wMTIxLDkuNDI0NyBMMzYuMTgzMSw3LjMxMTcgTDM1LjA2MjEsNy4zMTE3IEwzNC40ODgxLDguNjE3NyBMMzMuODY1MSw3LjMxMTcgTDMyLjY0NjEsNy4zMTE3IEwzMy44MTcxLDkuNDI0NyBMMzIuNjI5MSwxMS41NjA3IEwzMy43NTAxLDExLjU2MDcgTDM0LjMzOTEsMTAuMjEzNyBMMzUuMDI5MSwxMS41NjA3IEwzNi4yNDkxLDExLjU2MDcgWiBNMzAuMjA5MSwxMC40NzU3IEMzMC4xMTYxLDEwLjI1NjcgMzAuMDcxMSw5LjkxMTcgMzAuMDcxMSw5LjQ0MDcgQzMwLjA3MTEsOC45Njk3IDMwLjExNjEsOC42MjI3IDMwLjIwOTEsOC40MDA3IEMzMC4zMDAxLDguMTc5NyAzMC40NDcxLDguMDY3NyAzMC42NTMxLDguMDY3NyBDMzAuODU4MSw4LjA2NzcgMzEuMDA2MSw4LjE3OTcgMzEuMDk3MSw4LjQwMDcgQzMxLjE4ODEsOC42MjI3IDMxLjIzNTEsOC45Njk3IDMxLjIzNTEsOS40NDA3IEMzMS4yMzUxLDkuOTExNyAzMS4xODgxLDEwLjI1NjcgMzEuMDk3MSwxMC40NzU3IEMzMS4wMDYxLDEwLjY5NDcgMzAuODU4MSwxMC44MDQ3IDMwLjY1MzEsMTAuODA0NyBDMzAuNDQ3MSwxMC44MDQ3IDMwLjMwMDEsMTAuNjk0NyAzMC4yMDkxLDEwLjQ3NTcgTDMwLjIwOTEsMTAuNDc1NyBaIE0zMS45MjMxLDExLjA4NjcgQzMyLjIyMjEsMTAuNjk4NyAzMi4zNzExLDEwLjE0OTcgMzIuMzcxMSw5LjQ0MDcgQzMyLjM3MTEsOC43MjQ3IDMyLjIyMjEsOC4xNzQ3IDMxLjkyMzEsNy43ODU3IEMzMS42MjQxLDcuMzk3NyAzMS4yMDAxLDcuMjAzNyAzMC42NTMxLDcuMjAzNyBDMzAuMTA1MSw3LjIwMzcgMjkuNjgxMSw3LjM5NzcgMjkuMzgyMSw3Ljc4NTcgQzI5LjA4MzEsOC4xNzQ3IDI4LjkzNDEsOC43MjQ3IDI4LjkzNDEsOS40NDA3IEMyOC45MzQxLDEwLjE0OTcgMjkuMDgzMSwxMC42OTg3IDI5LjM4MjEsMTEuMDg2NyBDMjkuNjgxMSwxMS40NzQ3IDMwLjEwNTEsMTEuNjY4NyAzMC42NTMxLDExLjY2ODcgQzMxLjIwMDEsMTEuNjY4NyAzMS42MjQxLDExLjQ3NDcgMzEuOTIzMSwxMS4wODY3IEwzMS45MjMxLDExLjA4NjcgWiBNMjcuNDA1MSwxMS41NjA3IEwyNy40MDUxLDguNDU5NyBDMjcuNjQ0MSw4LjMyNjcgMjcuODk2MSw4LjI1OTcgMjguMTYxMSw4LjI1OTcgQzI4LjMwMDEsOC4yNTk3IDI4LjQ0NjEsOC4yNzM3IDI4LjYwMjEsOC4zMDE3IEwyOC42MDIxLDcuMjk1NyBDMjguNTEzMSw3LjI3ODcgMjguNDI0MSw3LjI2OTcgMjguMzM2MSw3LjI2OTcgQzI4LjE1NDEsNy4yNjk3IDI3Ljk4MDEsNy4zMTY3IDI3LjgxODEsNy40MTE3IEMyNy42NTQxLDcuNTA2NyAyNy40ODgxLDcuNjU1NyAyNy4zMjIxLDcuODYwNyBMMjcuMTk4MSw3LjMxMTcgTDI2LjI2OTEsNy4zMTE3IEwyNi4yNjkxLDExLjU2MDcgTDI3LjQwNTEsMTEuNTYwNyBaIE0yMy4wODAxLDYuNjYzNyBMMjMuNjE5MSw2LjY2MzcgQzIzLjgzNTEsNi42NjM3IDI0LjAwMDEsNi43NDM3IDI0LjExMzEsNi45MDQ3IEMyNC4yMjcxLDcuMDY0NyAyNC4yODQxLDcuMzAwNyAyNC4yODQxLDcuNjEwNyBDMjQuMjg0MSw3LjkyMTcgMjQuMjI3MSw4LjE1NzcgMjQuMTEzMSw4LjMxNzcgQzI0LjAwMDEsOC40Nzg3IDIzLjgzNTEsOC41NTg3IDIzLjYxOTEsOC41NTg3IEwyMy4wODAxLDguNTU4NyBMMjMuMDgwMSw2LjY2MzcgWiBNMjMuNzYxMSw5LjQyNDcgQzI0LjI3MDEsOS40MjQ3IDI0LjY3NjEsOS4yNjE3IDI0Ljk3NzEsOC45MzY3IEMyNS4yNzkxLDguNjEyNyAyNS40MzAxLDguMTcxNyAyNS40MzAxLDcuNjEwNyBDMjUuNDMwMSw3LjA1MTcgMjUuMjc5MSw2LjYwODcgMjQuOTc3MSw2LjI4NDcgQzI0LjY3NjEsNS45NjA3IDI0LjI3MDEsNS43OTg3IDIzLjc2MTEsNS43OTg3IEwyMS45NDMxLDUuNzk4NyBMMjEuOTQzMSwxMS41NjA3IEwyMy4wODAxLDExLjU2MDcgTDIzLjA4MDEsOS40MjQ3IEwyMy43NjExLDkuNDI0NyBaIE0xNy41MTcxLDkuMjMyNyBDMTcuNzQzMSw5LjM1NDcgMTcuOTA1MSw5LjQ3NDcgMTguMDAyMSw5LjU5NDcgQzE4LjA5OTEsOS43MTM3IDE4LjE0ODEsOS44NTg3IDE4LjE0ODEsMTAuMDMwNyBDMTguMTQ4MSwxMC4yNjM3IDE4LjA3ODEsMTAuNDQxNyAxNy45NDExLDEwLjU2NjcgQzE3LjgwMjEsMTAuNjkxNyAxNy42MDAxLDEwLjc1NDcgMTcuMzM0MSwxMC43NTQ3IEMxNy4xNTIxLDEwLjc1NDcgMTYuOTMyMSwxMC43Mjc3IDE2LjY3NDEsMTAuNjc1NyBDMTYuNDE3MSwxMC42MjI3IDE2LjE4NjEsMTAuNTU2NyAxNS45ODExLDEwLjQ3OTcgTDE1Ljk4MTEsMTEuMzUyNyBDMTYuMTU4MSwxMS40NTI3IDE2LjM3NjEsMTEuNTMyNyAxNi42MzcxLDExLjU5NDcgQzE2Ljg5NzEsMTEuNjU0NyAxNy4xNTcxLDExLjY4NTcgMTcuNDE3MSwxMS42ODU3IEMxOC4wMTUxLDExLjY4NTcgMTguNDg1MSwxMS41MzE3IDE4LjgyNDEsMTEuMjIzNyBDMTkuMTY1MSwxMC45MTY3IDE5LjMzNTEsMTAuNDk5NyAxOS4zMzUxLDkuOTcxNyBDMTkuMzM1MSw5LjcwMDcgMTkuMjk1MSw5LjQ2OTcgMTkuMjE1MSw5LjI3ODcgQzE5LjEzNDEsOS4wODc3IDE5LjAxMDEsOC45MTM3IDE4Ljg0MTEsOC43NTg3IEMxOC42NzIxLDguNjAzNyAxOC40NDUxLDguNDQ4NyAxOC4xNTYxLDguMjkyNyBMMTcuNzA4MSw4LjA1MTcgQzE3LjQ2NDEsNy45MTk3IDE3LjMwMDEsNy43OTc3IDE3LjIxNDEsNy42ODU3IEMxNy4xMjgxLDcuNTc0NyAxNy4wODUxLDcuNDMzNyAxNy4wODUxLDcuMjYxNyBDMTcuMDg1MSw3LjA1NjcgMTcuMTUyMSw2Ljg5NTcgMTcuMjg0MSw2Ljc3OTcgQzE3LjQxNzEsNi42NjM3IDE3LjYwMDEsNi42MDQ3IDE3LjgzMjEsNi42MDQ3IEMxOC4xNzUxLDYuNjA0NyAxOC41NzExLDYuNjg3NyAxOS4wMjAxLDYuODUzNyBMMTkuMDIwMSw1Ljk3MjcgQzE4LjU4ODEsNS43NzM3IDE4LjE1NDEsNS42NzM3IDE3LjcxNjEsNS42NzM3IEMxNy4zNjcxLDUuNjczNyAxNy4wNTkxLDUuNzQxNyAxNi43OTAxLDUuODc3NyBDMTYuNTIyMSw2LjAxMzcgMTYuMzEwMSw2LjIwNzcgMTYuMTU1MSw2LjQ1OTcgQzE2LjAwMDEsNi43MTE3IDE1LjkyMzEsNy4wMDc3IDE1LjkyMzEsNy4zNDU3IEMxNS45MjMxLDcuNzExNyAxNi4wMTExLDguMDIwNyAxNi4xODkxLDguMjc1NyBDMTYuMzY1MSw4LjUzMTcgMTYuNjU5MSw4Ljc2OTcgMTcuMDY5MSw4Ljk5MTcgTDE3LjUxNzEsOS4yMzI3IFogTTEyLjk4NDEsNi42ODc3IEMxMy4zNTQxLDYuNjg3NyAxMy42MjcxLDYuODQyNyAxMy44MDExLDcuMTQ5NyBDMTMuOTc2MSw3LjQ1NzcgMTQuMDYzMSw3LjkzNzcgMTQuMDYzMSw4LjU5MjcgTDE0LjA2MzEsOC43NTg3IEMxNC4wNjMxLDkuNDA2NyAxMy45NzQxLDkuODg4NyAxMy43OTcxLDEwLjIwMTcgQzEzLjYxOTEsMTAuNTEzNyAxMy4zNTIxLDEwLjY3MTcgMTIuOTkxMSwxMC42NzE3IEwxMi41MDExLDEwLjY3MTcgTDEyLjUwMTEsNi42ODc3IEwxMi45ODQxLDYuNjg3NyBaIE0xMy4xMTYxLDExLjU2MDcgQzEzLjgxNDEsMTEuNTYwNyAxNC4zNDUxLDExLjMxNjcgMTQuNzEwMSwxMC44Mjg3IEMxNS4wNzUxLDEwLjM0MTcgMTUuMjU4MSw5LjYyMzcgMTUuMjU4MSw4LjY3NTcgQzE1LjI1ODEsNy43MzI3IDE1LjA3MjEsNy4wMTc3IDE0LjcwMTEsNi41Mjk3IEMxNC4zMzExLDYuMDQyNyAxMy43ODgxLDUuNzk4NyAxMy4wNzQxLDUuNzk4NyBMMTEuMzM5MSw1Ljc5ODcgTDExLjMzOTEsMTEuNTYwNyBMMTMuMTE2MSwxMS41NjA3IFogTTguMDUyMSw2LjY2MzcgTDguNTkxMSw2LjY2MzcgQzguODA3MSw2LjY2MzcgOC45NzIxLDYuNzQzNyA5LjA4NTEsNi45MDQ3IEM5LjE5ODEsNy4wNjQ3IDkuMjU2MSw3LjMwMDcgOS4yNTYxLDcuNjEwNyBDOS4yNTYxLDcuOTIxNyA5LjE5ODEsOC4xNTc3IDkuMDg1MSw4LjMxNzcgQzguOTcyMSw4LjQ3ODcgOC44MDcxLDguNTU4NyA4LjU5MTEsOC41NTg3IEw4LjA1MjEsOC41NTg3IEw4LjA1MjEsNi42NjM3IFogTTEwLjcwMDEsMTEuNTYwNyBMOS41MzcxLDkuMjQ5NyBDOS44MTUxLDkuMTEwNyAxMC4wMjgxLDguODk5NyAxMC4xNzcxLDguNjE3NyBDMTAuMzI2MSw4LjMzNDcgMTAuNDAyMSw3Ljk5OTcgMTAuNDAyMSw3LjYxMDcgQzEwLjQwMjEsNy4wNTE3IDEwLjI1MDEsNi42MDg3IDkuOTQ4MSw2LjI4NDcgQzkuNjQ3MSw1Ljk2MDcgOS4yNDExLDUuNzk4NyA4LjczMzEsNS43OTg3IEw2LjkxNDEsNS43OTg3IEw2LjkxNDEsMTEuNTYwNyBMOC4wNTIxLDExLjU2MDcgTDguMDUyMSw5LjQyNDcgTDguNTAwMSw5LjQyNDcgTDkuNTA1MSwxMS41NjA3IEwxMC43MDAxLDExLjU2MDcgWiBNMjcuNDEzMSw0NS44MTU3IEw3LjY1MTEsNDUuODE1NyBDNC41MzQxLDQ1LjgxNTcgMi4wMDAxLDQzLjI4MDcgMi4wMDAxLDQwLjE2NTcgTDIuMDAwMSw3LjY0OTcgQzIuMDAwMSw0LjUzNDcgNC41MzQxLDEuOTk5NyA3LjY1MTEsMS45OTk3IEw0MC4xNjUxLDEuOTk5NyBDNDMuMjgxMSwxLjk5OTcgNDUuODE2MSw0LjUzNDcgNDUuODE2MSw3LjY0OTcgTDQ1LjgxNjEsMjAuNDAyNyBMNDQuMDY0MSwyMC40MDI3IEw0NC4wNjQxLDcuNjQ5NyBDNDQuMDY0MSw1LjUwMDcgNDIuMzE1MSwzLjc1MjcgNDAuMTY1MSwzLjc1MjcgTDcuNjUxMSwzLjc1MjcgQzUuNTAxMSwzLjc1MjcgMy43NTIxLDUuNTAwNyAzLjc1MjEsNy42NDk3IEwzLjc1MjEsNDAuMTY1NyBDMy43NTIxLDQyLjMxNDcgNS41MDExLDQ0LjA2MjcgNy42NTExLDQ0LjA2MjcgTDI3LjQxMzEsNDQuMDYyNyBMMjcuNDEzMSw0NS44MTU3IFoiLz4mI3hhOyAgICA8L2c+JiN4YTs8L3N2Zz4=;" vertex="1" parent="1">
          <mxGeometry x="80" y="150" width="48" height="48" as="geometry" />
        </mxCell>
        <mxCell id="0r_N5V76rt5JCGLBSWf1-4" value="&lt;div style=&quot;&quot;&gt;&lt;span style=&quot;background-color: initial;&quot;&gt;Private subnet&lt;/span&gt;&lt;/div&gt;&lt;div style=&quot;&quot;&gt;&lt;span style=&quot;background-color: initial;&quot;&gt;10.0.1.0/24&lt;/span&gt;&lt;/div&gt;" style="points=[[0,0],[0.25,0],[0.5,0],[0.75,0],[1,0],[1,0.25],[1,0.5],[1,0.75],[1,1],[0.75,1],[0.5,1],[0.25,1],[0,1],[0,0.75],[0,0.5],[0,0.25]];outlineConnect=0;gradientColor=none;html=1;whiteSpace=wrap;fontSize=12;fontStyle=0;container=0;pointerEvents=0;collapsible=0;recursiveResize=0;shape=mxgraph.aws4.group;grIcon=mxgraph.aws4.group_security_group;grStroke=0;strokeColor=#147EBA;fillColor=#E6F2F8;verticalAlign=top;align=left;spacingLeft=30;fontColor=#147EBA;dashed=0;movable=1;resizable=1;rotatable=1;deletable=1;editable=1;locked=0;connectable=1;" vertex="1" parent="1">
          <mxGeometry x="-160" y="129.08636363636361" width="150" height="190.9090909090909" as="geometry" />
        </mxCell>
        <mxCell id="0r_N5V76rt5JCGLBSWf1-15" value="Availability zone&lt;br&gt;us-east-1a" style="sketch=0;outlineConnect=0;gradientColor=none;html=1;whiteSpace=wrap;fontSize=12;fontStyle=0;shape=mxgraph.aws4.group;grIcon=mxgraph.aws4.group_availability_zone;strokeColor=#545B64;fillColor=none;verticalAlign=top;align=center;spacingLeft=30;fontColor=#545B64;dashed=1;movable=1;resizable=1;rotatable=1;deletable=1;editable=1;locked=0;connectable=1;" vertex="1" parent="1">
          <mxGeometry x="-180" y="40" width="190" height="320" as="geometry" />
        </mxCell>
        <mxCell id="0r_N5V76rt5JCGLBSWf1-6" value="RDS&#xa;PostgreSQL" style="shape=image;verticalLabelPosition=bottom;labelBackgroundColor=default;verticalAlign=top;aspect=fixed;imageAspect=0;image=data:image/svg+xml,PHN2ZyB4bWxuczp4bGluaz0iaHR0cDovL3d3dy53My5vcmcvMTk5OS94bGluayIgeG1sbnM9Imh0dHA6Ly93d3cudzMub3JnLzIwMDAvc3ZnIiB2ZXJzaW9uPSIxLjEiIHZpZXdCb3g9IjAgMCA4MCA4MCIgaGVpZ2h0PSI4MHB4IiB3aWR0aD0iODBweCI+JiN4YTsgICAgPHRpdGxlPkljb24tQXJjaGl0ZWN0dXJlLzY0L0FyY2hfQW1hem9uLVJEU182NDwvdGl0bGU+JiN4YTsgICAgPGcgZmlsbC1ydWxlPSJldmVub2RkIiBmaWxsPSJub25lIiBzdHJva2Utd2lkdGg9IjEiIHN0cm9rZT0ibm9uZSIgaWQ9Ikljb24tQXJjaGl0ZWN0dXJlLzY0L0FyY2hfQW1hem9uLVJEU182NCI+JiN4YTsgICAgICAgIDxnIGZpbGw9IiNDOTI1RDEiIGlkPSJJY29uLUFyY2hpdGVjdHVyZS1CRy82NC9EYXRhYmFzZSI+JiN4YTsgICAgICAgICAgICA8cmVjdCBoZWlnaHQ9IjgwIiB3aWR0aD0iODAiIHk9IjAiIHg9IjAiIGlkPSJSZWN0YW5nbGUiLz4mI3hhOyAgICAgICAgPC9nPiYjeGE7ICAgICAgICA8cGF0aCBmaWxsPSIjRkZGRkZGIiBpZD0iQW1hem9uLVJEU19JY29uXzY0X1NxdWlkIiBkPSJNMTUuNDE0LDE0IEwyNC43MDcsMjMuMjkzIEwyMy4yOTMsMjQuNzA3IEwxNCwxNS40MTQgTDE0LDIzIEwxMiwyMyBMMTIsMTMgQzEyLDEyLjQ0OCAxMi40NDcsMTIgMTMsMTIgTDIzLDEyIEwyMywxNCBMMTUuNDE0LDE0IFogTTY4LDEzIEw2OCwyMyBMNjYsMjMgTDY2LDE1LjQxNCBMNTYuNzA3LDI0LjcwNyBMNTUuMjkzLDIzLjI5MyBMNjQuNTg2LDE0IEw1NywxNCBMNTcsMTIgTDY3LDEyIEM2Ny41NTMsMTIgNjgsMTIuNDQ4IDY4LDEzIEw2OCwxMyBaIE02Niw1NyBMNjgsNTcgTDY4LDY3IEM2OCw2Ny41NTIgNjcuNTUzLDY4IDY3LDY4IEw1Nyw2OCBMNTcsNjYgTDY0LjU4Niw2NiBMNTUuMjkzLDU2LjcwNyBMNTYuNzA3LDU1LjI5MyBMNjYsNjQuNTg2IEw2Niw1NyBaIE02NS41LDM5LjIxMyBDNjUuNSwzNS44OTQgNjEuNjY4LDMyLjYxNSA1NS4yNSwzMC40NDIgTDU1Ljg5MSwyOC41NDggQzYzLjI2OCwzMS4wNDUgNjcuNSwzNC45MzIgNjcuNSwzOS4yMTMgQzY3LjUsNDMuNDk1IDYzLjI2OCw0Ny4zODMgNTUuODksNDkuODc5IEw1NS4yNDksNDcuOTg0IEM2MS42NjgsNDUuODEyIDY1LjUsNDIuNTM0IDY1LjUsMzkuMjEzIEw2NS41LDM5LjIxMyBaIE0xNC41NTYsMzkuMjEzIEMxNC41NTYsNDIuMzkzIDE4LjE0Myw0NS41ODUgMjQuMTUyLDQ3Ljc1MyBMMjMuNDczLDQ5LjYzNCBDMTYuNTM1LDQ3LjEzMSAxMi41NTYsNDMuMzMzIDEyLjU1NiwzOS4yMTMgQzEyLjU1NiwzNS4wOTQgMTYuNTM1LDMxLjI5NiAyMy40NzMsMjguNzkyIEwyNC4xNTIsMzAuNjczIEMxOC4xNDMsMzIuODQyIDE0LjU1NiwzNi4wMzQgMTQuNTU2LDM5LjIxMyBMMTQuNTU2LDM5LjIxMyBaIE0yNC43MDcsNTYuNzA3IEwxNS40MTQsNjYgTDIzLDY2IEwyMyw2OCBMMTMsNjggQzEyLjQ0Nyw2OCAxMiw2Ny41NTIgMTIsNjcgTDEyLDU3IEwxNCw1NyBMMTQsNjQuNTg2IEwyMy4yOTMsNTUuMjkzIEwyNC43MDcsNTYuNzA3IFogTTQwLDMxLjI4NiBDMzIuODU0LDMxLjI4NiAyOSwyOS40NCAyOSwyOC42ODYgQzI5LDI3LjkzMSAzMi44NTQsMjYuMDg2IDQwLDI2LjA4NiBDNDcuMTQ1LDI2LjA4NiA1MSwyNy45MzEgNTEsMjguNjg2IEM1MSwyOS40NCA0Ny4xNDUsMzEuMjg2IDQwLDMxLjI4NiBMNDAsMzEuMjg2IFogTTQwLjAyOSwzOS4wMzEgQzMzLjE4NywzOS4wMzEgMjksMzcuMTYyIDI5LDM2LjE0NSBMMjksMzEuMjg0IEMzMS40NjMsMzIuNjQzIDM1LjgzMiwzMy4yODYgNDAsMzMuMjg2IEM0NC4xNjgsMzMuMjg2IDQ4LjUzNywzMi42NDMgNTEsMzEuMjg0IEw1MSwzNi4xNDUgQzUxLDM3LjE2MyA0Ni44MzUsMzkuMDMxIDQwLjAyOSwzOS4wMzEgTDQwLjAyOSwzOS4wMzEgWiBNNDAuMDI5LDQ2LjY2NyBDMzMuMTg3LDQ2LjY2NyAyOSw0NC43OTggMjksNDMuNzgxIEwyOSwzOC44NjIgQzMxLjQzMSw0MC4yOTEgMzUuNzQyLDQxLjAzMSA0MC4wMjksNDEuMDMxIEM0NC4yOTIsNDEuMDMxIDQ4LjU3OCw0MC4yOTIgNTEsMzguODY3IEw1MSw0My43ODEgQzUxLDQ0Ljc5OSA0Ni44MzUsNDYuNjY3IDQwLjAyOSw0Ni42NjcgTDQwLjAyOSw0Ni42NjcgWiBNNDAsNTMuNTE4IEMzMi44ODMsNTMuNTE4IDI5LDUxLjYwNSAyOSw1MC42MjIgTDI5LDQ2LjQ5OCBDMzEuNDMxLDQ3LjkyNyAzNS43NDIsNDguNjY3IDQwLjAyOSw0OC42NjcgQzQ0LjI5Miw0OC42NjcgNDguNTc4LDQ3LjkyOSA1MSw0Ni41MDMgTDUxLDUwLjYyMiBDNTEsNTEuNjA1IDQ3LjExNyw1My41MTggNDAsNTMuNTE4IEw0MCw1My41MTggWiBNNDAsMjQuMDg2IEMzMy43MzksMjQuMDg2IDI3LDI1LjUyNSAyNywyOC42ODYgTDI3LDUwLjYyMiBDMjcsNTMuODM2IDMzLjU0LDU1LjUxOCA0MCw1NS41MTggQzQ2LjQ2LDU1LjUxOCA1Myw1My44MzYgNTMsNTAuNjIyIEw1MywyOC42ODYgQzUzLDI1LjUyNSA0Ni4yNjEsMjQuMDg2IDQwLDI0LjA4NiBMNDAsMjQuMDg2IFoiLz4mI3hhOyAgICA8L2c+JiN4YTs8L3N2Zz4=;movable=1;resizable=1;rotatable=1;deletable=1;editable=1;locked=0;connectable=1;opacity=25;" vertex="1" parent="1">
          <mxGeometry x="-150" y="190.00272727272724" width="80" height="80" as="geometry" />
        </mxCell>
        <mxCell id="0r_N5V76rt5JCGLBSWf1-16" value="&lt;div style=&quot;&quot;&gt;&lt;span style=&quot;background-color: initial;&quot;&gt;Private subnet&lt;/span&gt;&lt;/div&gt;&lt;div style=&quot;&quot;&gt;&lt;span style=&quot;background-color: initial;&quot;&gt;10.0.2.0/24&lt;/span&gt;&lt;/div&gt;" style="points=[[0,0],[0.25,0],[0.5,0],[0.75,0],[1,0],[1,0.25],[1,0.5],[1,0.75],[1,1],[0.75,1],[0.5,1],[0.25,1],[0,1],[0,0.75],[0,0.5],[0,0.25]];outlineConnect=0;gradientColor=none;html=1;whiteSpace=wrap;fontSize=12;fontStyle=0;container=0;pointerEvents=0;collapsible=0;recursiveResize=0;shape=mxgraph.aws4.group;grIcon=mxgraph.aws4.group_security_group;grStroke=0;strokeColor=#147EBA;fillColor=#E6F2F8;verticalAlign=top;align=left;spacingLeft=30;fontColor=#147EBA;dashed=0;movable=1;resizable=1;rotatable=1;deletable=1;editable=1;locked=0;connectable=1;" vertex="1" parent="1">
          <mxGeometry x="50" y="129.08636363636361" width="150" height="190.9090909090909" as="geometry" />
        </mxCell>
        <mxCell id="0r_N5V76rt5JCGLBSWf1-18" value="Availability zone&lt;br&gt;us-east-1b" style="sketch=0;outlineConnect=0;gradientColor=none;html=1;whiteSpace=wrap;fontSize=12;fontStyle=0;shape=mxgraph.aws4.group;grIcon=mxgraph.aws4.group_availability_zone;strokeColor=#545B64;fillColor=none;verticalAlign=top;align=center;spacingLeft=30;fontColor=#545B64;dashed=1;movable=1;resizable=1;rotatable=1;deletable=1;editable=1;locked=0;connectable=1;" vertex="1" parent="1">
          <mxGeometry x="30" y="40" width="190" height="320" as="geometry" />
        </mxCell>
        <mxCell id="0r_N5V76rt5JCGLBSWf1-17" value="RDS&#xa;PostgreSQL" style="shape=image;verticalLabelPosition=bottom;labelBackgroundColor=default;verticalAlign=top;aspect=fixed;imageAspect=0;image=data:image/svg+xml,PHN2ZyB4bWxuczp4bGluaz0iaHR0cDovL3d3dy53My5vcmcvMTk5OS94bGluayIgeG1sbnM9Imh0dHA6Ly93d3cudzMub3JnLzIwMDAvc3ZnIiB2ZXJzaW9uPSIxLjEiIHZpZXdCb3g9IjAgMCA4MCA4MCIgaGVpZ2h0PSI4MHB4IiB3aWR0aD0iODBweCI+JiN4YTsgICAgPHRpdGxlPkljb24tQXJjaGl0ZWN0dXJlLzY0L0FyY2hfQW1hem9uLVJEU182NDwvdGl0bGU+JiN4YTsgICAgPGcgZmlsbC1ydWxlPSJldmVub2RkIiBmaWxsPSJub25lIiBzdHJva2Utd2lkdGg9IjEiIHN0cm9rZT0ibm9uZSIgaWQ9Ikljb24tQXJjaGl0ZWN0dXJlLzY0L0FyY2hfQW1hem9uLVJEU182NCI+JiN4YTsgICAgICAgIDxnIGZpbGw9IiNDOTI1RDEiIGlkPSJJY29uLUFyY2hpdGVjdHVyZS1CRy82NC9EYXRhYmFzZSI+JiN4YTsgICAgICAgICAgICA8cmVjdCBoZWlnaHQ9IjgwIiB3aWR0aD0iODAiIHk9IjAiIHg9IjAiIGlkPSJSZWN0YW5nbGUiLz4mI3hhOyAgICAgICAgPC9nPiYjeGE7ICAgICAgICA8cGF0aCBmaWxsPSIjRkZGRkZGIiBpZD0iQW1hem9uLVJEU19JY29uXzY0X1NxdWlkIiBkPSJNMTUuNDE0LDE0IEwyNC43MDcsMjMuMjkzIEwyMy4yOTMsMjQuNzA3IEwxNCwxNS40MTQgTDE0LDIzIEwxMiwyMyBMMTIsMTMgQzEyLDEyLjQ0OCAxMi40NDcsMTIgMTMsMTIgTDIzLDEyIEwyMywxNCBMMTUuNDE0LDE0IFogTTY4LDEzIEw2OCwyMyBMNjYsMjMgTDY2LDE1LjQxNCBMNTYuNzA3LDI0LjcwNyBMNTUuMjkzLDIzLjI5MyBMNjQuNTg2LDE0IEw1NywxNCBMNTcsMTIgTDY3LDEyIEM2Ny41NTMsMTIgNjgsMTIuNDQ4IDY4LDEzIEw2OCwxMyBaIE02Niw1NyBMNjgsNTcgTDY4LDY3IEM2OCw2Ny41NTIgNjcuNTUzLDY4IDY3LDY4IEw1Nyw2OCBMNTcsNjYgTDY0LjU4Niw2NiBMNTUuMjkzLDU2LjcwNyBMNTYuNzA3LDU1LjI5MyBMNjYsNjQuNTg2IEw2Niw1NyBaIE02NS41LDM5LjIxMyBDNjUuNSwzNS44OTQgNjEuNjY4LDMyLjYxNSA1NS4yNSwzMC40NDIgTDU1Ljg5MSwyOC41NDggQzYzLjI2OCwzMS4wNDUgNjcuNSwzNC45MzIgNjcuNSwzOS4yMTMgQzY3LjUsNDMuNDk1IDYzLjI2OCw0Ny4zODMgNTUuODksNDkuODc5IEw1NS4yNDksNDcuOTg0IEM2MS42NjgsNDUuODEyIDY1LjUsNDIuNTM0IDY1LjUsMzkuMjEzIEw2NS41LDM5LjIxMyBaIE0xNC41NTYsMzkuMjEzIEMxNC41NTYsNDIuMzkzIDE4LjE0Myw0NS41ODUgMjQuMTUyLDQ3Ljc1MyBMMjMuNDczLDQ5LjYzNCBDMTYuNTM1LDQ3LjEzMSAxMi41NTYsNDMuMzMzIDEyLjU1NiwzOS4yMTMgQzEyLjU1NiwzNS4wOTQgMTYuNTM1LDMxLjI5NiAyMy40NzMsMjguNzkyIEwyNC4xNTIsMzAuNjczIEMxOC4xNDMsMzIuODQyIDE0LjU1NiwzNi4wMzQgMTQuNTU2LDM5LjIxMyBMMTQuNTU2LDM5LjIxMyBaIE0yNC43MDcsNTYuNzA3IEwxNS40MTQsNjYgTDIzLDY2IEwyMyw2OCBMMTMsNjggQzEyLjQ0Nyw2OCAxMiw2Ny41NTIgMTIsNjcgTDEyLDU3IEwxNCw1NyBMMTQsNjQuNTg2IEwyMy4yOTMsNTUuMjkzIEwyNC43MDcsNTYuNzA3IFogTTQwLDMxLjI4NiBDMzIuODU0LDMxLjI4NiAyOSwyOS40NCAyOSwyOC42ODYgQzI5LDI3LjkzMSAzMi44NTQsMjYuMDg2IDQwLDI2LjA4NiBDNDcuMTQ1LDI2LjA4NiA1MSwyNy45MzEgNTEsMjguNjg2IEM1MSwyOS40NCA0Ny4xNDUsMzEuMjg2IDQwLDMxLjI4NiBMNDAsMzEuMjg2IFogTTQwLjAyOSwzOS4wMzEgQzMzLjE4NywzOS4wMzEgMjksMzcuMTYyIDI5LDM2LjE0NSBMMjksMzEuMjg0IEMzMS40NjMsMzIuNjQzIDM1LjgzMiwzMy4yODYgNDAsMzMuMjg2IEM0NC4xNjgsMzMuMjg2IDQ4LjUzNywzMi42NDMgNTEsMzEuMjg0IEw1MSwzNi4xNDUgQzUxLDM3LjE2MyA0Ni44MzUsMzkuMDMxIDQwLjAyOSwzOS4wMzEgTDQwLjAyOSwzOS4wMzEgWiBNNDAuMDI5LDQ2LjY2NyBDMzMuMTg3LDQ2LjY2NyAyOSw0NC43OTggMjksNDMuNzgxIEwyOSwzOC44NjIgQzMxLjQzMSw0MC4yOTEgMzUuNzQyLDQxLjAzMSA0MC4wMjksNDEuMDMxIEM0NC4yOTIsNDEuMDMxIDQ4LjU3OCw0MC4yOTIgNTEsMzguODY3IEw1MSw0My43ODEgQzUxLDQ0Ljc5OSA0Ni44MzUsNDYuNjY3IDQwLjAyOSw0Ni42NjcgTDQwLjAyOSw0Ni42NjcgWiBNNDAsNTMuNTE4IEMzMi44ODMsNTMuNTE4IDI5LDUxLjYwNSAyOSw1MC42MjIgTDI5LDQ2LjQ5OCBDMzEuNDMxLDQ3LjkyNyAzNS43NDIsNDguNjY3IDQwLjAyOSw0OC42NjcgQzQ0LjI5Miw0OC42NjcgNDguNTc4LDQ3LjkyOSA1MSw0Ni41MDMgTDUxLDUwLjYyMiBDNTEsNTEuNjA1IDQ3LjExNyw1My41MTggNDAsNTMuNTE4IEw0MCw1My41MTggWiBNNDAsMjQuMDg2IEMzMy43MzksMjQuMDg2IDI3LDI1LjUyNSAyNywyOC42ODYgTDI3LDUwLjYyMiBDMjcsNTMuODM2IDMzLjU0LDU1LjUxOCA0MCw1NS41MTggQzQ2LjQ2LDU1LjUxOCA1Myw1My44MzYgNTMsNTAuNjIyIEw1MywyOC42ODYgQzUzLDI1LjUyNSA0Ni4yNjEsMjQuMDg2IDQwLDI0LjA4NiBMNDAsMjQuMDg2IFoiLz4mI3hhOyAgICA8L2c+JiN4YTs8L3N2Zz4=;movable=1;resizable=1;rotatable=1;deletable=1;editable=1;locked=0;connectable=1;" vertex="1" parent="1">
          <mxGeometry x="60" y="190.00272727272724" width="80" height="80" as="geometry" />
        </mxCell>
        <mxCell id="0r_N5V76rt5JCGLBSWf1-23" style="edgeStyle=orthogonalEdgeStyle;rounded=0;orthogonalLoop=1;jettySize=auto;html=1;exitX=0.5;exitY=1;exitDx=0;exitDy=0;entryX=0.5;entryY=1;entryDx=0;entryDy=0;" edge="1" parent="1" source="0r_N5V76rt5JCGLBSWf1-19" target="0r_N5V76rt5JCGLBSWf1-22">
          <mxGeometry relative="1" as="geometry">
            <Array as="points">
              <mxPoint x="168" y="330" />
              <mxPoint x="490" y="330" />
            </Array>
          </mxGeometry>
        </mxCell>
        <mxCell id="0r_N5V76rt5JCGLBSWf1-24" style="edgeStyle=orthogonalEdgeStyle;rounded=0;orthogonalLoop=1;jettySize=auto;html=1;exitX=0.5;exitY=0;exitDx=0;exitDy=0;entryX=0.5;entryY=0;entryDx=0;entryDy=0;" edge="1" parent="1" source="0r_N5V76rt5JCGLBSWf1-19" target="0r_N5V76rt5JCGLBSWf1-17">
          <mxGeometry relative="1" as="geometry">
            <Array as="points">
              <mxPoint x="168" y="171" />
              <mxPoint x="100" y="171" />
            </Array>
          </mxGeometry>
        </mxCell>
        <mxCell id="0r_N5V76rt5JCGLBSWf1-19" value="" style="shape=image;verticalLabelPosition=bottom;labelBackgroundColor=default;verticalAlign=top;aspect=fixed;imageAspect=0;image=data:image/svg+xml,PHN2ZyB4bWxuczp4bGluaz0iaHR0cDovL3d3dy53My5vcmcvMTk5OS94bGluayIgeG1sbnM9Imh0dHA6Ly93d3cudzMub3JnLzIwMDAvc3ZnIiB2ZXJzaW9uPSIxLjEiIHZpZXdCb3g9IjAgMCA0OCA0OCIgaGVpZ2h0PSI0OHB4IiB3aWR0aD0iNDhweCI+JiN4YTsgICAgPHRpdGxlPkljb24tUmVzb3VyY2UvRGF0YWJhc2UvUmVzX0FtYXpvbi1SRFMtUHJveHktSW5zdGFuY2UtQWx0ZXJuYXRlXzQ4PC90aXRsZT4mI3hhOyAgICA8ZyBmaWxsLXJ1bGU9ImV2ZW5vZGQiIGZpbGw9Im5vbmUiIHN0cm9rZS13aWR0aD0iMSIgc3Ryb2tlPSJub25lIiBpZD0iSWNvbi1SZXNvdXJjZS9EYXRhYmFzZS9SZXNfQW1hem9uLVJEUy1Qcm94eS1JbnN0YW5jZS1BbHRlcm5hdGVfNDgiPiYjeGE7ICAgICAgICA8cGF0aCBmaWxsPSIjQzkyNUQxIiBpZD0iQW1hem9uLURBVEFCQVNFX0FtYXpvbi1SRFMtUHJveHktQWx0ZXJuYXRlX1Jlc291cmNlLUljb25fbGlnaHQtYmciIGQ9Ik0yOC4zMywyNi42MSBMMjYuNTI1LDIwLjkxMSBMMjguMTExLDIwLjkxMSBMMjguOTU0LDI1LjAyNCBMMjkuNzc0LDIwLjkxMSBMMzEuMzE2LDIwLjkxMSBMMjkuNDY4LDI3LjM1NCBDMjkuMzE1LDI3Ljg5NCAyOS4xMSwyOC4yODQgMjguODU1LDI4LjUyNSBDMjguNjAxLDI4Ljc2NCAyOC4yNjUsMjguODg1IDI3Ljg0OSwyOC44ODUgQzI3LjUzNiwyOC44ODUgMjcuMjE1LDI4LjgzMSAyNi44ODcsMjguNzIxIEwyNi44ODcsMjcuNzE1IEMyNy4wODMsMjcuNzQ1IDI3LjI1OSwyNy43NTggMjcuNDExLDI3Ljc1OCBDMjcuNjg3LDI3Ljc1OCAyNy44OTYsMjcuNjg1IDI4LjAzNSwyNy41NCBDMjguMTczLDI3LjM5NCAyOC4yNjUsMjcuMTQ5IDI4LjMwOSwyNi44MDcgTDI4LjMzLDI2LjYxIFogTTI0LjUwMiwyNi41MDEgTDIzLjU5NSwyNC43MjggTDIyLjgxNiwyNi41MDEgTDIxLjM0LDI2LjUwMSBMMjIuOTA0LDIzLjY4OSBMMjEuMzYyLDIwLjkxMSBMMjIuOTcxLDIwLjkxMSBMMjMuNzkxLDIyLjYyOSBMMjQuNTQ2LDIwLjkxMSBMMjYuMDIyLDIwLjkxMSBMMjQuNDc5LDIzLjY4OSBMMjYuMTEsMjYuNTAxIEwyNC41MDIsMjYuNTAxIFogTTE4LjczNiwyNS41MDYgQzE5LjAwNywyNS41MDYgMTkuMjAxLDI1LjM2MiAxOS4zMjIsMjUuMDczIEMxOS40NDIsMjQuNzg1IDE5LjUwMiwyNC4zMzEgMTkuNTAyLDIzLjcxMiBDMTkuNTAyLDIzLjA5MSAxOS40NDIsMjIuNjM1IDE5LjMyMiwyMi4zNDQgQzE5LjIwMSwyMi4wNTIgMTkuMDA3LDIxLjkwNyAxOC43MzYsMjEuOTA3IEMxOC40NjcsMjEuOTA3IDE4LjI3MSwyMi4wNTIgMTguMTUyLDIyLjM0NCBDMTguMDMsMjIuNjM1IDE3Ljk3MSwyMy4wOTEgMTcuOTcxLDIzLjcxMiBDMTcuOTcxLDI0LjMzMSAxOC4wMywyNC43ODUgMTguMTUyLDI1LjA3MyBDMTguMjcxLDI1LjM2MiAxOC40NjcsMjUuNTA2IDE4LjczNiwyNS41MDYgTDE4LjczNiwyNS41MDYgWiBNMTguNzM2LDI2LjY0MyBDMTguMDE2LDI2LjY0MyAxNy40NTYsMjYuMzg4IDE3LjA2MywyNS44NzcgQzE2LjY2OSwyNS4zNjcgMTYuNDcyLDI0LjY0NCAxNi40NzIsMjMuNzEyIEMxNi40NzIsMjIuNzcgMTYuNjY5LDIyLjA0NSAxNy4wNjMsMjEuNTM1IEMxNy40NTYsMjEuMDIzIDE4LjAxNiwyMC43NjkgMTguNzM2LDIwLjc2OSBDMTkuNDU5LDIwLjc2OSAyMC4wMTcsMjEuMDIzIDIwLjQxLDIxLjUzNSBDMjAuODA1LDIyLjA0NSAyMS4wMDEsMjIuNzcgMjEuMDAxLDIzLjcxMiBDMjEuMDAxLDI0LjY0NCAyMC44MDUsMjUuMzY3IDIwLjQxLDI1Ljg3NyBDMjAuMDE3LDI2LjM4OCAxOS40NTksMjYuNjQzIDE4LjczNiwyNi42NDMgTDE4LjczNiwyNi42NDMgWiBNMTIuOTYxLDI2LjUwMSBMMTIuOTYxLDIwLjkxMSBMMTQuMTg2LDIwLjkxMSBMMTQuMzUxLDIxLjYzMiBDMTQuNTY5LDIxLjM2MyAxNC43ODYsMjEuMTY3IDE1LjAwMiwyMS4wNDMgQzE1LjIxNywyMC45MTkgMTUuNDQ0LDIwLjg1NiAxNS42ODUsMjAuODU2IEMxNS44MDIsMjAuODU2IDE1LjkxOCwyMC44NjcgMTYuMDM1LDIwLjg4OCBMMTYuMDM1LDIyLjIxMyBDMTUuODMxLDIyLjE3NiAxNS42MzgsMjIuMTU4IDE1LjQ1NSwyMi4xNTggQzE1LjEwNSwyMi4xNTggMTQuNzcyLDIyLjI0NiAxNC40NiwyMi40MiBMMTQuNDYsMjYuNTAxIEwxMi45NjEsMjYuNTAxIFogTTguNzYxLDIyLjU1MSBMOS40NzIsMjIuNTUxIEM5Ljc1NiwyMi41NTEgOS45NzQsMjIuNDQ2IDEwLjEyMiwyMi4yMzUgQzEwLjI3MiwyMi4wMjMgMTAuMzQ3LDIxLjcxNCAxMC4zNDcsMjEuMzA0IEMxMC4zNDcsMjAuODk2IDEwLjI3MiwyMC41ODYgMTAuMTIyLDIwLjM3NSBDOS45NzQsMjAuMTYzIDkuNzU2LDIwLjA1OCA5LjQ3MiwyMC4wNTggTDguNzYxLDIwLjA1OCBMOC43NjEsMjIuNTUxIFogTTguNzYxLDIzLjY4OSBMOC43NjEsMjYuNTAxIEw3LjI2MywyNi41MDEgTDcuMjYzLDE4LjkyIEw5LjY1NywxOC45MiBDMTAuMzI5LDE4LjkyIDEwLjg2MiwxOS4xMzMgMTEuMjYxLDE5LjU1OSBDMTEuNjU3LDE5Ljk4NiAxMS44NTYsMjAuNTY4IDExLjg1NiwyMS4zMDQgQzExLjg1NiwyMi4wNDIgMTEuNjU3LDIyLjYyMyAxMS4yNjEsMjMuMDQ5IEMxMC44NjIsMjMuNDc2IDEwLjMyOSwyMy42ODkgOS42NTcsMjMuNjg5IEw4Ljc2MSwyMy42ODkgWiBNMjAuNjQxLDExLjc0NCBDMjAuMTAxLDExLjQ1MiAxOS43MTQsMTEuMTM4IDE5LjQ4LDEwLjgwMiBDMTkuMjQ4LDEwLjQ2NyAxOS4xMzIsMTAuMDU5IDE5LjEzMiw5LjU3OCBDMTkuMTMyLDkuMTMyIDE5LjIzMyw4Ljc0NSAxOS40MzcsOC40MTMgQzE5LjY0MSw4LjA4MSAxOS45Miw3LjgyNiAyMC4yNzQsNy42NDYgQzIwLjYyOCw3LjQ2OCAyMS4wMzQsNy4zNzkgMjEuNDkzLDcuMzc5IEMyMi4wNjksNy4zNzkgMjIuNjQzLDcuNTA5IDIzLjIxMSw3Ljc3MyBMMjMuMjExLDguOTMyIEMyMi42Miw4LjcxNCAyMi4wOTksOC42MDQgMjEuNjQ3LDguNjA0IEMyMS4zNDEsOC42MDQgMjEuMTAxLDguNjggMjAuOTI1LDguODM0IEMyMC43NSw4Ljk4NyAyMC42NjMsOS4xOTkgMjAuNjYzLDkuNDY4IEMyMC42NjMsOS42OTQgMjAuNzIsOS44ODEgMjAuODMyLDEwLjAyNiBDMjAuOTQ1LDEwLjE3MiAyMS4xNjIsMTAuMzMzIDIxLjQ4MywxMC41MDcgTDIyLjA3MywxMC44MjUgQzIyLjQ1MiwxMS4wMjkgMjIuNzUzLDExLjIzMyAyMi45NzYsMTEuNDM3IEMyMy4xOTgsMTEuNjQxIDIzLjM2MiwxMS44NyAyMy40NjgsMTIuMTIxIEMyMy41NzMsMTIuMzczIDIzLjYyNywxMi42NzcgMjMuNjI3LDEzLjAzNSBDMjMuNjI3LDEzLjcyNyAyMy40MDIsMTQuMjc2IDIyLjk1NCwxNC42OCBDMjIuNTA2LDE1LjA4NiAyMS44ODgsMTUuMjg4IDIxLjEwMSwxNS4yODggQzIwLjc1NywxNS4yODggMjAuNDE1LDE1LjI0OCAyMC4wNzEsMTUuMTY4IEMxOS43MjgsMTUuMDg4IDE5LjQ0LDE0Ljk4MSAxOS4yMDcsMTQuODUgTDE5LjIwNywxMy43MDIgQzE5LjQ3NiwxMy44MDMgMTkuNzgyLDEzLjg5IDIwLjEyMSwxMy45NiBDMjAuNDYsMTQuMDI5IDIwLjc1LDE0LjA2MyAyMC45OTEsMTQuMDYzIEMyMS4zNDEsMTQuMDYzIDIxLjYwNiwxMy45ODEgMjEuNzg5LDEzLjgxNiBDMjEuOTcyLDEzLjY1MiAyMi4wNjIsMTMuNDE4IDIyLjA2MiwxMy4xMTIgQzIyLjA2MiwxMi44ODUgMjEuOTk5LDEyLjY5NCAyMS44NzEsMTIuNTM3IEMyMS43NDMsMTIuMzggMjEuNTMsMTIuMjIxIDIxLjIzMSwxMi4wNjEgTDIwLjY0MSwxMS43NDQgWiBNMTQuNjI0LDguNzE0IEwxNC42MjQsMTMuOTU0IEwxNS4yNjksMTMuOTU0IEMxNS43NDQsMTMuOTU0IDE2LjA5OCwxMy43NDggMTYuMzMsMTMuMzM2IEMxNi41NjQsMTIuOTIzIDE2LjY4MSwxMi4yOTEgMTYuNjgxLDExLjQzNyBMMTYuNjgxLDExLjIxOCBDMTYuNjgxLDEwLjM1OCAxNi41NjUsOS43MjUgMTYuMzM2LDkuMzIgQzE2LjEwNiw4LjkxNiAxNS43NDcsOC43MTQgMTUuMjU4LDguNzE0IEwxNC42MjQsOC43MTQgWiBNMTMuMDkzLDE1LjEyNCBMMTMuMDkzLDcuNTQzIEwxNS4zNzksNy41NDMgQzE2LjMxOSw3LjU0MyAxNy4wMzQsNy44NjQgMTcuNTIzLDguNTA2IEMxOC4wMTIsOS4xNDcgMTguMjU2LDEwLjA4OSAxOC4yNTYsMTEuMzI4IEMxOC4yNTYsMTIuNTc1IDE4LjAxNiwxMy41MiAxNy41MzMsMTQuMTYxIEMxNy4wNTMsMTQuODAyIDE2LjM1MiwxNS4xMjQgMTUuNDM0LDE1LjEyNCBMMTMuMDkzLDE1LjEyNCBaIE04Ljc2MSwxMS4xNzQgTDkuNDcyLDExLjE3NCBDOS43NTYsMTEuMTc0IDkuOTc0LDExLjA2OSAxMC4xMjIsMTAuODU3IEMxMC4yNzIsMTAuNjQ2IDEwLjM0NywxMC4zMzYgMTAuMzQ3LDkuOTI3IEMxMC4zNDcsOS41MTkgMTAuMjcyLDkuMjEgMTAuMTIyLDguOTk4IEM5Ljk3NCw4Ljc4NiA5Ljc1Niw4LjY4IDkuNDcyLDguNjggTDguNzYxLDguNjggTDguNzYxLDExLjE3NCBaIE0xMC42NzUsMTUuMTI0IEw5LjM1MSwxMi4zMTIgTDguNzYxLDEyLjMxMiBMOC43NjEsMTUuMTI0IEw3LjI2MywxNS4xMjQgTDcuMjYzLDcuNTQzIEw5LjY1Nyw3LjU0MyBDMTAuMzI5LDcuNTQzIDEwLjg2Miw3Ljc1NiAxMS4yNjEsOC4xODMgQzExLjY1Nyw4LjYwOSAxMS44NTYsOS4xOTEgMTEuODU2LDkuOTI3IEMxMS44NTYsMTAuNDM4IDExLjc1OCwxMC44OCAxMS41NjEsMTEuMjUyIEMxMS4zNjQsMTEuNjIzIDExLjA4MywxMS45IDEwLjcxOSwxMi4wODMgTDEyLjI1LDE1LjEyNCBMMTAuNjc1LDE1LjEyNCBaIE03LjY0MywzLjc1IEM1LjQ5NiwzLjc1IDMuNzUsNS40OTYgMy43NSw3LjY0MiBMMy43NSw0MC4xMTMgQzMuNzUsNDIuMjYgNS40OTYsNDQuMDA2IDcuNjQzLDQ0LjAwNiBMNDAuMTEzLDQ0LjAwNiBDNDIuMjYsNDQuMDA2IDQ0LjAwNiw0Mi4yNiA0NC4wMDYsNDAuMTEzIEw0NC4wMDYsNy42NDIgQzQ0LjAwNiw1LjQ5NiA0Mi4yNiwzLjc1IDQwLjExMywzLjc1IEw3LjY0MywzLjc1IFogTTQwLjExMyw0NS43NTYgTDcuNjQzLDQ1Ljc1NiBDNC41MzEsNDUuNzU2IDIsNDMuMjI1IDIsNDAuMTEzIEwyLDcuNjQyIEMyLDQuNTMxIDQuNTMxLDIgNy42NDMsMiBMNDAuMTEzLDIgQzQzLjIyNSwyIDQ1Ljc1Niw0LjUzMSA0NS43NTYsNy42NDIgTDQ1Ljc1Niw0MC4xMTMgQzQ1Ljc1Niw0My4yMjUgNDMuMjI1LDQ1Ljc1NiA0MC4xMTMsNDUuNzU2IEw0MC4xMTMsNDUuNzU2IFoiLz4mI3hhOyAgICA8L2c+JiN4YTs8L3N2Zz4=;" vertex="1" parent="1">
          <mxGeometry x="144" y="206" width="48" height="48" as="geometry" />
        </mxCell>
        <mxCell id="0r_N5V76rt5JCGLBSWf1-20" value="" style="shape=image;verticalLabelPosition=bottom;labelBackgroundColor=default;verticalAlign=top;aspect=fixed;imageAspect=0;image=data:image/svg+xml,PHN2ZyB4bWxuczp4bGluaz0iaHR0cDovL3d3dy53My5vcmcvMTk5OS94bGluayIgeG1sbnM9Imh0dHA6Ly93d3cudzMub3JnLzIwMDAvc3ZnIiB2ZXJzaW9uPSIxLjEiIHZpZXdCb3g9IjAgMCA0OCA0OCIgaGVpZ2h0PSI0OHB4IiB3aWR0aD0iNDhweCI+JiN4YTsgICAgPHRpdGxlPkljb24tUmVzb3VyY2UvRGF0YWJhc2UvUmVzX0FtYXpvbi1SRFMtUHJveHktSW5zdGFuY2UtQWx0ZXJuYXRlXzQ4PC90aXRsZT4mI3hhOyAgICA8ZyBmaWxsLXJ1bGU9ImV2ZW5vZGQiIGZpbGw9Im5vbmUiIHN0cm9rZS13aWR0aD0iMSIgc3Ryb2tlPSJub25lIiBpZD0iSWNvbi1SZXNvdXJjZS9EYXRhYmFzZS9SZXNfQW1hem9uLVJEUy1Qcm94eS1JbnN0YW5jZS1BbHRlcm5hdGVfNDgiPiYjeGE7ICAgICAgICA8cGF0aCBmaWxsPSIjQzkyNUQxIiBpZD0iQW1hem9uLURBVEFCQVNFX0FtYXpvbi1SRFMtUHJveHktQWx0ZXJuYXRlX1Jlc291cmNlLUljb25fbGlnaHQtYmciIGQ9Ik0yOC4zMywyNi42MSBMMjYuNTI1LDIwLjkxMSBMMjguMTExLDIwLjkxMSBMMjguOTU0LDI1LjAyNCBMMjkuNzc0LDIwLjkxMSBMMzEuMzE2LDIwLjkxMSBMMjkuNDY4LDI3LjM1NCBDMjkuMzE1LDI3Ljg5NCAyOS4xMSwyOC4yODQgMjguODU1LDI4LjUyNSBDMjguNjAxLDI4Ljc2NCAyOC4yNjUsMjguODg1IDI3Ljg0OSwyOC44ODUgQzI3LjUzNiwyOC44ODUgMjcuMjE1LDI4LjgzMSAyNi44ODcsMjguNzIxIEwyNi44ODcsMjcuNzE1IEMyNy4wODMsMjcuNzQ1IDI3LjI1OSwyNy43NTggMjcuNDExLDI3Ljc1OCBDMjcuNjg3LDI3Ljc1OCAyNy44OTYsMjcuNjg1IDI4LjAzNSwyNy41NCBDMjguMTczLDI3LjM5NCAyOC4yNjUsMjcuMTQ5IDI4LjMwOSwyNi44MDcgTDI4LjMzLDI2LjYxIFogTTI0LjUwMiwyNi41MDEgTDIzLjU5NSwyNC43MjggTDIyLjgxNiwyNi41MDEgTDIxLjM0LDI2LjUwMSBMMjIuOTA0LDIzLjY4OSBMMjEuMzYyLDIwLjkxMSBMMjIuOTcxLDIwLjkxMSBMMjMuNzkxLDIyLjYyOSBMMjQuNTQ2LDIwLjkxMSBMMjYuMDIyLDIwLjkxMSBMMjQuNDc5LDIzLjY4OSBMMjYuMTEsMjYuNTAxIEwyNC41MDIsMjYuNTAxIFogTTE4LjczNiwyNS41MDYgQzE5LjAwNywyNS41MDYgMTkuMjAxLDI1LjM2MiAxOS4zMjIsMjUuMDczIEMxOS40NDIsMjQuNzg1IDE5LjUwMiwyNC4zMzEgMTkuNTAyLDIzLjcxMiBDMTkuNTAyLDIzLjA5MSAxOS40NDIsMjIuNjM1IDE5LjMyMiwyMi4zNDQgQzE5LjIwMSwyMi4wNTIgMTkuMDA3LDIxLjkwNyAxOC43MzYsMjEuOTA3IEMxOC40NjcsMjEuOTA3IDE4LjI3MSwyMi4wNTIgMTguMTUyLDIyLjM0NCBDMTguMDMsMjIuNjM1IDE3Ljk3MSwyMy4wOTEgMTcuOTcxLDIzLjcxMiBDMTcuOTcxLDI0LjMzMSAxOC4wMywyNC43ODUgMTguMTUyLDI1LjA3MyBDMTguMjcxLDI1LjM2MiAxOC40NjcsMjUuNTA2IDE4LjczNiwyNS41MDYgTDE4LjczNiwyNS41MDYgWiBNMTguNzM2LDI2LjY0MyBDMTguMDE2LDI2LjY0MyAxNy40NTYsMjYuMzg4IDE3LjA2MywyNS44NzcgQzE2LjY2OSwyNS4zNjcgMTYuNDcyLDI0LjY0NCAxNi40NzIsMjMuNzEyIEMxNi40NzIsMjIuNzcgMTYuNjY5LDIyLjA0NSAxNy4wNjMsMjEuNTM1IEMxNy40NTYsMjEuMDIzIDE4LjAxNiwyMC43NjkgMTguNzM2LDIwLjc2OSBDMTkuNDU5LDIwLjc2OSAyMC4wMTcsMjEuMDIzIDIwLjQxLDIxLjUzNSBDMjAuODA1LDIyLjA0NSAyMS4wMDEsMjIuNzcgMjEuMDAxLDIzLjcxMiBDMjEuMDAxLDI0LjY0NCAyMC44MDUsMjUuMzY3IDIwLjQxLDI1Ljg3NyBDMjAuMDE3LDI2LjM4OCAxOS40NTksMjYuNjQzIDE4LjczNiwyNi42NDMgTDE4LjczNiwyNi42NDMgWiBNMTIuOTYxLDI2LjUwMSBMMTIuOTYxLDIwLjkxMSBMMTQuMTg2LDIwLjkxMSBMMTQuMzUxLDIxLjYzMiBDMTQuNTY5LDIxLjM2MyAxNC43ODYsMjEuMTY3IDE1LjAwMiwyMS4wNDMgQzE1LjIxNywyMC45MTkgMTUuNDQ0LDIwLjg1NiAxNS42ODUsMjAuODU2IEMxNS44MDIsMjAuODU2IDE1LjkxOCwyMC44NjcgMTYuMDM1LDIwLjg4OCBMMTYuMDM1LDIyLjIxMyBDMTUuODMxLDIyLjE3NiAxNS42MzgsMjIuMTU4IDE1LjQ1NSwyMi4xNTggQzE1LjEwNSwyMi4xNTggMTQuNzcyLDIyLjI0NiAxNC40NiwyMi40MiBMMTQuNDYsMjYuNTAxIEwxMi45NjEsMjYuNTAxIFogTTguNzYxLDIyLjU1MSBMOS40NzIsMjIuNTUxIEM5Ljc1NiwyMi41NTEgOS45NzQsMjIuNDQ2IDEwLjEyMiwyMi4yMzUgQzEwLjI3MiwyMi4wMjMgMTAuMzQ3LDIxLjcxNCAxMC4zNDcsMjEuMzA0IEMxMC4zNDcsMjAuODk2IDEwLjI3MiwyMC41ODYgMTAuMTIyLDIwLjM3NSBDOS45NzQsMjAuMTYzIDkuNzU2LDIwLjA1OCA5LjQ3MiwyMC4wNTggTDguNzYxLDIwLjA1OCBMOC43NjEsMjIuNTUxIFogTTguNzYxLDIzLjY4OSBMOC43NjEsMjYuNTAxIEw3LjI2MywyNi41MDEgTDcuMjYzLDE4LjkyIEw5LjY1NywxOC45MiBDMTAuMzI5LDE4LjkyIDEwLjg2MiwxOS4xMzMgMTEuMjYxLDE5LjU1OSBDMTEuNjU3LDE5Ljk4NiAxMS44NTYsMjAuNTY4IDExLjg1NiwyMS4zMDQgQzExLjg1NiwyMi4wNDIgMTEuNjU3LDIyLjYyMyAxMS4yNjEsMjMuMDQ5IEMxMC44NjIsMjMuNDc2IDEwLjMyOSwyMy42ODkgOS42NTcsMjMuNjg5IEw4Ljc2MSwyMy42ODkgWiBNMjAuNjQxLDExLjc0NCBDMjAuMTAxLDExLjQ1MiAxOS43MTQsMTEuMTM4IDE5LjQ4LDEwLjgwMiBDMTkuMjQ4LDEwLjQ2NyAxOS4xMzIsMTAuMDU5IDE5LjEzMiw5LjU3OCBDMTkuMTMyLDkuMTMyIDE5LjIzMyw4Ljc0NSAxOS40MzcsOC40MTMgQzE5LjY0MSw4LjA4MSAxOS45Miw3LjgyNiAyMC4yNzQsNy42NDYgQzIwLjYyOCw3LjQ2OCAyMS4wMzQsNy4zNzkgMjEuNDkzLDcuMzc5IEMyMi4wNjksNy4zNzkgMjIuNjQzLDcuNTA5IDIzLjIxMSw3Ljc3MyBMMjMuMjExLDguOTMyIEMyMi42Miw4LjcxNCAyMi4wOTksOC42MDQgMjEuNjQ3LDguNjA0IEMyMS4zNDEsOC42MDQgMjEuMTAxLDguNjggMjAuOTI1LDguODM0IEMyMC43NSw4Ljk4NyAyMC42NjMsOS4xOTkgMjAuNjYzLDkuNDY4IEMyMC42NjMsOS42OTQgMjAuNzIsOS44ODEgMjAuODMyLDEwLjAyNiBDMjAuOTQ1LDEwLjE3MiAyMS4xNjIsMTAuMzMzIDIxLjQ4MywxMC41MDcgTDIyLjA3MywxMC44MjUgQzIyLjQ1MiwxMS4wMjkgMjIuNzUzLDExLjIzMyAyMi45NzYsMTEuNDM3IEMyMy4xOTgsMTEuNjQxIDIzLjM2MiwxMS44NyAyMy40NjgsMTIuMTIxIEMyMy41NzMsMTIuMzczIDIzLjYyNywxMi42NzcgMjMuNjI3LDEzLjAzNSBDMjMuNjI3LDEzLjcyNyAyMy40MDIsMTQuMjc2IDIyLjk1NCwxNC42OCBDMjIuNTA2LDE1LjA4NiAyMS44ODgsMTUuMjg4IDIxLjEwMSwxNS4yODggQzIwLjc1NywxNS4yODggMjAuNDE1LDE1LjI0OCAyMC4wNzEsMTUuMTY4IEMxOS43MjgsMTUuMDg4IDE5LjQ0LDE0Ljk4MSAxOS4yMDcsMTQuODUgTDE5LjIwNywxMy43MDIgQzE5LjQ3NiwxMy44MDMgMTkuNzgyLDEzLjg5IDIwLjEyMSwxMy45NiBDMjAuNDYsMTQuMDI5IDIwLjc1LDE0LjA2MyAyMC45OTEsMTQuMDYzIEMyMS4zNDEsMTQuMDYzIDIxLjYwNiwxMy45ODEgMjEuNzg5LDEzLjgxNiBDMjEuOTcyLDEzLjY1MiAyMi4wNjIsMTMuNDE4IDIyLjA2MiwxMy4xMTIgQzIyLjA2MiwxMi44ODUgMjEuOTk5LDEyLjY5NCAyMS44NzEsMTIuNTM3IEMyMS43NDMsMTIuMzggMjEuNTMsMTIuMjIxIDIxLjIzMSwxMi4wNjEgTDIwLjY0MSwxMS43NDQgWiBNMTQuNjI0LDguNzE0IEwxNC42MjQsMTMuOTU0IEwxNS4yNjksMTMuOTU0IEMxNS43NDQsMTMuOTU0IDE2LjA5OCwxMy43NDggMTYuMzMsMTMuMzM2IEMxNi41NjQsMTIuOTIzIDE2LjY4MSwxMi4yOTEgMTYuNjgxLDExLjQzNyBMMTYuNjgxLDExLjIxOCBDMTYuNjgxLDEwLjM1OCAxNi41NjUsOS43MjUgMTYuMzM2LDkuMzIgQzE2LjEwNiw4LjkxNiAxNS43NDcsOC43MTQgMTUuMjU4LDguNzE0IEwxNC42MjQsOC43MTQgWiBNMTMuMDkzLDE1LjEyNCBMMTMuMDkzLDcuNTQzIEwxNS4zNzksNy41NDMgQzE2LjMxOSw3LjU0MyAxNy4wMzQsNy44NjQgMTcuNTIzLDguNTA2IEMxOC4wMTIsOS4xNDcgMTguMjU2LDEwLjA4OSAxOC4yNTYsMTEuMzI4IEMxOC4yNTYsMTIuNTc1IDE4LjAxNiwxMy41MiAxNy41MzMsMTQuMTYxIEMxNy4wNTMsMTQuODAyIDE2LjM1MiwxNS4xMjQgMTUuNDM0LDE1LjEyNCBMMTMuMDkzLDE1LjEyNCBaIE04Ljc2MSwxMS4xNzQgTDkuNDcyLDExLjE3NCBDOS43NTYsMTEuMTc0IDkuOTc0LDExLjA2OSAxMC4xMjIsMTAuODU3IEMxMC4yNzIsMTAuNjQ2IDEwLjM0NywxMC4zMzYgMTAuMzQ3LDkuOTI3IEMxMC4zNDcsOS41MTkgMTAuMjcyLDkuMjEgMTAuMTIyLDguOTk4IEM5Ljk3NCw4Ljc4NiA5Ljc1Niw4LjY4IDkuNDcyLDguNjggTDguNzYxLDguNjggTDguNzYxLDExLjE3NCBaIE0xMC42NzUsMTUuMTI0IEw5LjM1MSwxMi4zMTIgTDguNzYxLDEyLjMxMiBMOC43NjEsMTUuMTI0IEw3LjI2MywxNS4xMjQgTDcuMjYzLDcuNTQzIEw5LjY1Nyw3LjU0MyBDMTAuMzI5LDcuNTQzIDEwLjg2Miw3Ljc1NiAxMS4yNjEsOC4xODMgQzExLjY1Nyw4LjYwOSAxMS44NTYsOS4xOTEgMTEuODU2LDkuOTI3IEMxMS44NTYsMTAuNDM4IDExLjc1OCwxMC44OCAxMS41NjEsMTEuMjUyIEMxMS4zNjQsMTEuNjIzIDExLjA4MywxMS45IDEwLjcxOSwxMi4wODMgTDEyLjI1LDE1LjEyNCBMMTAuNjc1LDE1LjEyNCBaIE03LjY0MywzLjc1IEM1LjQ5NiwzLjc1IDMuNzUsNS40OTYgMy43NSw3LjY0MiBMMy43NSw0MC4xMTMgQzMuNzUsNDIuMjYgNS40OTYsNDQuMDA2IDcuNjQzLDQ0LjAwNiBMNDAuMTEzLDQ0LjAwNiBDNDIuMjYsNDQuMDA2IDQ0LjAwNiw0Mi4yNiA0NC4wMDYsNDAuMTEzIEw0NC4wMDYsNy42NDIgQzQ0LjAwNiw1LjQ5NiA0Mi4yNiwzLjc1IDQwLjExMywzLjc1IEw3LjY0MywzLjc1IFogTTQwLjExMyw0NS43NTYgTDcuNjQzLDQ1Ljc1NiBDNC41MzEsNDUuNzU2IDIsNDMuMjI1IDIsNDAuMTEzIEwyLDcuNjQyIEMyLDQuNTMxIDQuNTMxLDIgNy42NDMsMiBMNDAuMTEzLDIgQzQzLjIyNSwyIDQ1Ljc1Niw0LjUzMSA0NS43NTYsNy42NDIgTDQ1Ljc1Niw0MC4xMTMgQzQ1Ljc1Niw0My4yMjUgNDMuMjI1LDQ1Ljc1NiA0MC4xMTMsNDUuNzU2IEw0MC4xMTMsNDUuNzU2IFoiLz4mI3hhOyAgICA8L2c+JiN4YTs8L3N2Zz4=;opacity=25;" vertex="1" parent="1">
          <mxGeometry x="-65" y="206" width="48" height="48" as="geometry" />
        </mxCell>
        <mxCell id="0r_N5V76rt5JCGLBSWf1-21" style="edgeStyle=orthogonalEdgeStyle;rounded=0;orthogonalLoop=1;jettySize=auto;html=1;exitX=0;exitY=0.5;exitDx=0;exitDy=0;entryX=1;entryY=0.5;entryDx=0;entryDy=0;" edge="1" parent="1" source="0r_N5V76rt5JCGLBSWf1-5" target="0r_N5V76rt5JCGLBSWf1-19">
          <mxGeometry relative="1" as="geometry" />
        </mxCell>
        <mxCell id="0r_N5V76rt5JCGLBSWf1-22" value="Secrets&#xa;Manager" style="shape=image;verticalLabelPosition=bottom;labelBackgroundColor=default;verticalAlign=top;aspect=fixed;imageAspect=0;image=data:image/svg+xml,PHN2ZyB4bWxuczp4bGluaz0iaHR0cDovL3d3dy53My5vcmcvMTk5OS94bGluayIgeG1sbnM9Imh0dHA6Ly93d3cudzMub3JnLzIwMDAvc3ZnIiB2ZXJzaW9uPSIxLjEiIHZpZXdCb3g9IjAgMCA4MCA4MCIgaGVpZ2h0PSI4MHB4IiB3aWR0aD0iODBweCI+JiN4YTsgICAgPHRpdGxlPkljb24tQXJjaGl0ZWN0dXJlLzY0L0FyY2hfQVdTLVNlY3JldHMtTWFuYWdlcl82NDwvdGl0bGU+JiN4YTsgICAgPGcgZmlsbC1ydWxlPSJldmVub2RkIiBmaWxsPSJub25lIiBzdHJva2Utd2lkdGg9IjEiIHN0cm9rZT0ibm9uZSIgaWQ9Ikljb24tQXJjaGl0ZWN0dXJlLzY0L0FyY2hfQVdTLVNlY3JldHMtTWFuYWdlcl82NCI+JiN4YTsgICAgICAgIDxnIGZpbGw9IiNERDM0NEMiIGlkPSJJY29uLUFyY2hpdGVjdHVyZS1CRy82NC9TZWN1cml0eS1JZGVudGl0eS1Db21wbGlhbmNlIj4mI3hhOyAgICAgICAgICAgIDxyZWN0IGhlaWdodD0iODAiIHdpZHRoPSI4MCIgeT0iMCIgeD0iMCIgaWQ9IlJlY3RhbmdsZSIvPiYjeGE7ICAgICAgICA8L2c+JiN4YTsgICAgICAgIDxwYXRoIGZpbGw9IiNGRkZGRkYiIGlkPSJBV1MtU2VjcmV0cy1NYW5hZ2VyX0ljb25fNjRfU3F1aWQiIGQ9Ik0zOC43Niw0My4zNiBDMzguNzYsNDQuMDQ0IDM5LjMxNyw0NC42IDQwLDQ0LjYgQzQwLjY4NCw0NC42IDQxLjI0LDQ0LjA0NCA0MS4yNCw0My4zNiBDNDEuMjQsNDIuNjc2IDQwLjY4NCw0Mi4xMiA0MCw0Mi4xMiBDMzkuMzE3LDQyLjEyIDM4Ljc2LDQyLjY3NiAzOC43Niw0My4zNiBMMzguNzYsNDMuMzYgWiBNMzYuNzYsNDMuMzYgQzM2Ljc2LDQxLjU3MyAzOC4yMTMsNDAuMTIgNDAsNDAuMTIgQzQxLjc4Nyw0MC4xMiA0My4yNCw0MS41NzMgNDMuMjQsNDMuMzYgQzQzLjI0LDQ0Ljc5NiA0Mi4yOTYsNDYuMDAyIDQxLDQ2LjQyNiBMNDEsNDkgTDM5LDQ5IEwzOSw0Ni40MjYgQzM3LjcwNCw0Ni4wMDIgMzYuNzYsNDQuNzk2IDM2Ljc2LDQzLjM2IEwzNi43Niw0My4zNiBaIE00OSwzOCBMMzEsMzggTDMxLDUxIEw0OSw1MSBMNDksNDggTDQ2LDQ4IEw0Niw0NiBMNDksNDYgTDQ5LDQzIEw0Niw0MyBMNDYsNDEgTDQ5LDQxIEw0OSwzOCBaIE0zNCwzNiBMNDUuOTk5LDM2IEw0NiwzMSBDNDYuMDAxLDI4LjM4NCA0My4xNDMsMjYuMDAyIDQwLjAwNCwyNiBMNDAuMDAxLDI2IEMzOC40NzIsMjYgMzYuOTI4LDI2LjU3NCAzNS43NjMsMjcuNTc1IEMzNC42NDMsMjguNTM3IDM0LDI5Ljc4NiAzNCwzMS4wMDEgTDM0LDM2IFogTTQ4LDMxLjAwMSBMNDcuOTk5LDM2IEw1MCwzNiBDNTAuNTUzLDM2IDUxLDM2LjQ0OCA1MSwzNyBMNTEsNTIgQzUxLDUyLjU1MiA1MC41NTMsNTMgNTAsNTMgTDMwLDUzIEMyOS40NDcsNTMgMjksNTIuNTUyIDI5LDUyIEwyOSwzNyBDMjksMzYuNDQ4IDI5LjQ0NywzNiAzMCwzNiBMMzIsMzYgTDMyLDMxIEMzMi4wMDEsMjkuMjAyIDMyLjg5NywyNy40MDEgMzQuNDU5LDI2LjA1OCBDMzUuOTgyLDI0Ljc1IDM4LjAwMSwyNCA0MC4wMDEsMjQgTDQwLjAwNCwyNCBDNDQuMjY1LDI0LjAwMiA0OC4wMDEsMjcuMjczIDQ4LDMxLjAwMSBMNDgsMzEuMDAxIFogTTE5LjIwNyw1NS4wNDkgTDIwLjgyOCw1My44NzcgQzE4LjA5Myw1MC4wOTcgMTYuNTgxLDQ1LjY2MiAxNi4zOTYsNDEgTDE5LDQxIEwxOSwzOSBMMTYuMzk5LDM5IEMxNi41OTgsMzQuMzY2IDE4LjEwOCwyOS45NTcgMjAuODI4LDI2LjE5OCBMMTkuMjA3LDI1LjAyNSBDMTYuMjM5LDI5LjEyOCAxNC41OTksMzMuOTQyIDE0LjM5OSwzOSBMMTIsMzkgTDEyLDQxIEwxNC4zOTYsNDEgQzE0LjU4Miw0Ni4wODYgMTYuMjI0LDUwLjkyNiAxOS4yMDcsNTUuMDQ5IEwxOS4yMDcsNTUuMDQ5IFogTTUzLjgzOCw1OS4yMDggQzUwLjA2OSw2MS45MzYgNDUuNjQ4LDYzLjQ0NiA0MSw2My42MzkgTDQxLDYxIEwzOSw2MSBMMzksNjMuNjM5IEMzNC4zNTIsNjMuNDQ3IDI5LjkzLDYxLjkzNyAyNi4xNTksNTkuMjA4IEwyNC45ODgsNjAuODI4IEMyOS4xLDYzLjgwNSAzMy45MjgsNjUuNDQ1IDM5LDY1LjYzOSBMMzksNjggTDQxLDY4IEw0MSw2NS42MzkgQzQ2LjA3Miw2NS40NDUgNTAuODk4LDYzLjgwNSA1NS4wMSw2MC44MjggTDUzLjgzOCw1OS4yMDggWiBNMjYuMTU5LDIwLjg2NiBDMjkuOTMsMTguMTM4IDM0LjM1MiwxNi42MjggMzksMTYuNDM2IEwzOSwxOSBMNDEsMTkgTDQxLDE2LjQzNiBDNDUuNjQ4LDE2LjYyOCA1MC4wNjksMTguMTM4IDUzLjgzOCwyMC44NjYgTDU1LjAxLDE5LjI0NiBDNTAuODk4LDE2LjI3IDQ2LjA3MiwxNC42MyA0MSwxNC40MzYgTDQxLDEyIEwzOSwxMiBMMzksMTQuNDM2IEMzMy45MjgsMTQuNjI5IDI5LjEsMTYuMjY5IDI0Ljk4OCwxOS4yNDYgTDI2LjE1OSwyMC44NjYgWiBNNjUuNTk5LDM5IEM2NS4zOTksMzMuOTQyIDYzLjc1OSwyOS4xMjggNjAuNzksMjUuMDI1IEw1OS4xNjksMjYuMTk4IEM2MS44OSwyOS45NTcgNjMuNCwzNC4zNjYgNjMuNTk5LDM5IEw2MSwzOSBMNjEsNDEgTDYzLjYwMiw0MSBDNjMuNDE2LDQ1LjY2MiA2MS45MDUsNTAuMDk3IDU5LjE2OSw1My44NzcgTDYwLjc5LDU1LjA0OSBDNjMuNzc0LDUwLjkyNiA2NS40MTUsNDYuMDg2IDY1LjYwMiw0MSBMNjgsNDEgTDY4LDM5IEw2NS41OTksMzkgWiBNNTYuMzg2LDI1LjA2NCBMNjQuMjI2LDE3LjIyNCBMNjIuODEyLDE1LjgxIEw1NC45NzIsMjMuNjUgTDU2LjM4NiwyNS4wNjQgWiBNMjMuNjEyLDU1LjAxIEwxNS43NzIsNjIuODUgTDE3LjE4Niw2NC4yNjQgTDI1LjAyNiw1Ni40MjQgTDIzLjYxMiw1NS4wMSBaIE0yOC42NjYsMjcuMjUzIEwxMy44MjUsMTIuNDEzIEwxMi40MTEsMTMuODI3IEwyNy4yNTIsMjguNjY3IEwyOC42NjYsMjcuMjUzIFogTTU0LjE5Myw1Mi43OCBMNjcuNTg2LDY2LjE3MyBMNjYuMTcyLDY3LjU4NyBMNTIuNzc5LDU0LjE5NCBMNTQuMTkzLDUyLjc4IFoiLz4mI3hhOyAgICA8L2c+JiN4YTs8L3N2Zz4=;" vertex="1" parent="1">
          <mxGeometry x="450" y="190" width="80" height="80" as="geometry" />
        </mxCell>
      </root>
    </mxGraphModel>
  </diagram>
</mxfile>
